<svg xmlns="http://www.w3.org/2000/svg" width="47" height="70" viewBox="0 0 47 70"><defs><style>.a{fill:#fff;}.b{fill:#231f20;}</style></defs><g transform="translate(-198.69 -952.742)"><path class="a" d="M245.69,952.742h-47v70h47v-70Z"/><path class="b" d="M245.008,953.493v68.5H199.373v-68.5h45.635"/><rect class="a" width="40.713" height="11.359" transform="translate(201.669 955.928)"/><rect class="a" width="40.736" height="41.757" transform="translate(201.651 969.763)"/><path class="a" d="M201.66,1019.523v-5.544h8.177v1.3h-4.892v.792h4.141v1.293h-4.141v.868h5.083v1.293Z"/><path class="a" d="M216.975,1015.594a.612.612,0,0,0-.474-.375,2.985,2.985,0,0,0-.849-.1c-.721,0-1.045.117-1.045.324,0,.82,5.766.3,5.766,2.322,0,1.284-1.938,1.911-4.693,1.911-2.646,0-4.371-.855-4.441-1.856h3.146a.8.8,0,0,0,.546.436,2.979,2.979,0,0,0,.934.14c.821,0,1.367-.144,1.367-.406,0-.841-5.771-.264-5.771-2.377,0-1.178,1.84-1.769,4.348-1.769,2.783,0,4.051.783,4.291,1.753Z"/><path class="a" d="M225.293,1016.384h1.293c1.016,0,1.562-.147,1.562-.528s-.555-.579-1.323-.579h-1.532Zm0,1.208v1.931h-3.284v-5.544h4.735c3.338,0,4.441.508,4.441,1.585,0,.641-.514,1.173-1.684,1.359,1.057.212,1.7.343,1.7,1.461,0,.721-.042.972.347.972v.167h-3.331a2.148,2.148,0,0,1-.164-.969c0-.728-.222-.962-1.754-.962Z"/><path class="a" d="M236.487,1015.277v.928h1.369c.655,0,1.131-.168,1.131-.485,0-.434-.648-.443-1.339-.443Zm0,1.931v1.022h1.434c.814,0,1.425-.094,1.425-.507,0-.485-.764-.515-1.814-.515Zm-3.283,2.315v-5.544H238c2.258,0,4.053.3,4.053,1.4,0,.572-.671.987-1.31,1.2,1.085.156,1.668.676,1.668,1.27,0,1.236-1.709,1.672-4.318,1.672Z"/><path class="b" d="M215.55,995.087l-.094-12.135,6.655,10.523Zm15.623-4.6a8.291,8.291,0,0,1-1.626.588c-4.189,1.031-7.166-1.23-8.318-5.188-.846-2.9-.34-5.462,1.642-7.033l-4.827-6.762-10.563,2.6-2.134,34.449,10.176-2.5-.035-4.466,10.349-2.554,2.452,3.876,10.344-2.546-7.46-10.461"/><path class="b" d="M223.769,985.269c.8,2.713,2.4,4.767,5.267,4.056a4.494,4.494,0,0,0,1.029-.391l-5.979-8.375c-.9,1.154-.851,2.885-.317,4.71"/><path class="b" d="M226.117,979.334c2.875-.709,4.48,1.344,5.269,4.059.687,2.343.571,4.532-1.321,5.541l1.106,1.555c2.9-1.42,3.745-4.334,2.757-7.727-1.156-3.945-4.126-6.211-8.32-5.175a7.18,7.18,0,0,0-2.737,1.269l1.215,1.7a3.5,3.5,0,0,1,2.031-1.225"/><path class="b" d="M202.807,964.831l1.059-6.442h1.05l1.033,6.442h-.84L204.9,963.4h-1.09l-.215,1.428Zm1.539-5.2h-.012l-.363,2.784h.761Z"/><path class="b" d="M206.341,958.389h1.331a.921.921,0,0,1,.634.215,1.371,1.371,0,0,1,.374.624,4.228,4.228,0,0,1,.183,1q.049.594.049,1.343v.584c0,.223-.01.456-.026.7a6.464,6.464,0,0,1-.1.718,2.476,2.476,0,0,1-.215.629,1.328,1.328,0,0,1-.37.451.9.9,0,0,1-.565.174h-1.3Zm.8,5.452h.385a.383.383,0,0,0,.291-.121.855.855,0,0,0,.178-.389,4.024,4.024,0,0,0,.086-.691c.016-.282.025-.625.025-1.03,0-.3,0-.58-.009-.847a4.777,4.777,0,0,0-.059-.709,1.347,1.347,0,0,0-.169-.492.351.351,0,0,0-.317-.181h-.411Z"/><path class="b" d="M212.125,958.389v4.568a3.8,3.8,0,0,1-.066.718,2.109,2.109,0,0,1-.217.634,1.315,1.315,0,0,1-.4.455,1.168,1.168,0,0,1-1.593-.362,2.809,2.809,0,0,1-.319-1.445v-4.568h.8v4.479a1.964,1.964,0,0,0,.134.852.389.389,0,0,0,.74-.03,2.159,2.159,0,0,0,.123-.822v-4.479Z"/><path class="b" d="M212.782,964.831v-6.442h.795v5.372h1.194v1.07Z"/><path class="b" d="M217.082,958.389v1.071H216.2v5.371h-.8V959.46h-.888v-1.071Z"/><path class="b" d="M219.816,963.073a3.232,3.232,0,0,1-.12.995,1.362,1.362,0,0,1-.315.561.88.88,0,0,1-.43.25,1.931,1.931,0,0,1-.463.058.969.969,0,0,1-.6-.169,1.052,1.052,0,0,1-.352-.459,2.328,2.328,0,0,1-.159-.67,5.493,5.493,0,0,1-.021-.8h.8c0,.155,0,.3.009.438a1.591,1.591,0,0,0,.056.36.49.49,0,0,0,.134.246.346.346,0,0,0,.254.09.318.318,0,0,0,.3-.2,1.2,1.2,0,0,0,.1-.531.994.994,0,0,0-.118-.5,2.09,2.09,0,0,0-.3-.406c-.12-.127-.247-.255-.384-.384a2.82,2.82,0,0,1-.386-.445,2.462,2.462,0,0,1-.3-.594,2.5,2.5,0,0,1-.118-.82,3.932,3.932,0,0,1,.06-.705,1.737,1.737,0,0,1,.2-.575,1.059,1.059,0,0,1,.387-.388,1.167,1.167,0,0,1,.606-.143.938.938,0,0,1,.862.464,2.729,2.729,0,0,1,.246,1.472h-.775c0-.119,0-.236-.014-.353a1.569,1.569,0,0,0-.053-.313.616.616,0,0,0-.111-.222.238.238,0,0,0-.192-.085.337.337,0,0,0-.3.174.953.953,0,0,0-.109.512,1.062,1.062,0,0,0,.118.519,1.731,1.731,0,0,0,.3.392c.121.118.248.24.384.362a2.488,2.488,0,0,1,.386.427,2.175,2.175,0,0,1,.3.59A2.576,2.576,0,0,1,219.816,963.073Z"/><path class="b" d="M222.837,964.937a1,1,0,0,1-.759-.28,1.678,1.678,0,0,1-.393-.749,5.091,5.091,0,0,1-.141-1.067c-.016-.4-.021-.808-.021-1.231s.005-.842.021-1.239a5,5,0,0,1,.141-1.062,1.694,1.694,0,0,1,.393-.746,1.172,1.172,0,0,1,1.52,0,1.672,1.672,0,0,1,.391.746,5,5,0,0,1,.143,1.062c.014.4.021.811.021,1.239s-.007.833-.021,1.231a5.084,5.084,0,0,1-.143,1.067,1.656,1.656,0,0,1-.391.749A1,1,0,0,1,222.837,964.937Zm0-.962a.312.312,0,0,0,.268-.139.99.99,0,0,0,.153-.424,4.724,4.724,0,0,0,.069-.735c.009-.3.016-.657.016-1.067s-.007-.766-.016-1.066a4.752,4.752,0,0,0-.069-.736.98.98,0,0,0-.153-.423.328.328,0,0,0-.536,0,1.033,1.033,0,0,0-.156.423,5.686,5.686,0,0,0-.067.736c-.011.3-.016.656-.016,1.066s.005.766.016,1.067a5.65,5.65,0,0,0,.067.735,1.044,1.044,0,0,0,.156.424A.311.311,0,0,0,222.837,963.975Z"/><path class="b" d="M224.789,964.831v-6.442h1.078l1.013,4.461h.012v-4.461h.742v6.442h-1.048l-1.041-4.71h-.009v4.71Z"/><path class="b" d="M228.312,964.831v-6.442h.8v5.372H230.3v1.07Z"/><path class="b" d="M230.963,962.6l-1-4.212h.869l.572,2.721.608-2.721h.814l-1.068,4.212v2.23h-.8Z"/><path class="b" d="M234.294,959.357a4.38,4.38,0,0,0,.384-.436,2.884,2.884,0,0,0,.328-.567h.706v6.477h-.8v-4.983a3.778,3.778,0,0,1-.3.39c-.106.118-.215.229-.321.335Z"/><path class="b" d="M237.548,964.914a.885.885,0,0,1-.795-.414,2.492,2.492,0,0,1-.269-1.33c0-.2.005-.387.019-.566a2.822,2.822,0,0,1,.074-.5,1.59,1.59,0,0,1,.164-.4.882.882,0,0,1,.285-.288V961.4a.582.582,0,0,1-.255-.2,1.068,1.068,0,0,1-.157-.315,1.7,1.7,0,0,1-.076-.409c-.014-.151-.021-.313-.021-.487a2.511,2.511,0,0,1,.259-1.3.931.931,0,0,1,1.547,0,2.507,2.507,0,0,1,.262,1.3c0,.174-.01.336-.021.487a1.911,1.911,0,0,1-.081.409,1.065,1.065,0,0,1-.155.315.582.582,0,0,1-.255.2v.018a.882.882,0,0,1,.285.288,1.59,1.59,0,0,1,.164.4,2.568,2.568,0,0,1,.074.5c.014.179.019.368.019.566a2.492,2.492,0,0,1-.269,1.33A.889.889,0,0,1,237.548,964.914Zm0-2.979a.21.21,0,0,0-.192.126,1.151,1.151,0,0,0-.1.306,2.857,2.857,0,0,0-.032.376c0,.13,0,.244,0,.343s0,.19.011.294a1.52,1.52,0,0,0,.047.287.584.584,0,0,0,.094.218.216.216,0,0,0,.34,0,.585.585,0,0,0,.1-.218,1.375,1.375,0,0,0,.047-.287c.007-.1.011-.2.011-.294s0-.213,0-.343a2.857,2.857,0,0,0-.032-.376,1.051,1.051,0,0,0-.1-.306A.211.211,0,0,0,237.548,961.935Zm0-2.717a.177.177,0,0,0-.152.087.616.616,0,0,0-.088.218,1.739,1.739,0,0,0-.042.274c-.005.1-.007.185-.007.265s0,.179.007.278a1.926,1.926,0,0,0,.039.284.607.607,0,0,0,.086.222.18.18,0,0,0,.157.088.185.185,0,0,0,.16-.088.645.645,0,0,0,.088-.222,1.935,1.935,0,0,0,.035-.284c.007-.1.009-.192.009-.278s0-.169-.009-.265a1.738,1.738,0,0,0-.038-.274.657.657,0,0,0-.09-.218A.181.181,0,0,0,237.548,959.218Z"/><path class="b" d="M239.75,959.639h.586V961.4h.893v.99h-.893v1.756h-.586v-1.756h-.9v-.99h.9Z"/></g></svg>