<svg xmlns="http://www.w3.org/2000/svg" width="24" height="24" viewBox="0 0 24 24"><defs><style>.a{fill:#0f0a28;}.b{fill:#fff;}.c{fill:none;stroke:#fff;stroke-miterlimit:10;}</style></defs><g transform="translate(-1884.51 -1427.23)"><circle class="a" cx="12" cy="12" r="12" transform="translate(1884.51 1427.23)"/><path class="b" d="M1901.664,1435.918a3.886,3.886,0,0,0-3.846,3.9v6.1l.962-.917.961.917.962-.917.961.917.962-.917.961.917.962-.917.962.917v-6.1A3.887,3.887,0,0,0,1901.664,1435.918Zm-1.538,5.025a.769.769,0,1,1,.769-.769A.769.769,0,0,1,1900.126,1440.943Zm3.077,0a.769.769,0,1,1,.769-.769A.769.769,0,0,1,1903.2,1440.943Z"/><path class="b" d="M1891.357,1435.918a3.886,3.886,0,0,0-3.846,3.9v6.1l.961-.917.962.917.961-.917.962.917.961-.917.962.917.961-.917.962.917v-6.1A3.886,3.886,0,0,0,1891.357,1435.918Zm-1.539,5.025a.769.769,0,1,1,.769-.769A.769.769,0,0,1,1889.818,1440.943Zm3.077,0a.769.769,0,1,1,.769-.769A.769.769,0,0,1,1892.9,1440.943Z"/><circle class="b" cx="1.25" cy="1.25" r="1.25" transform="translate(1895.26 1435.71)"/><path class="c" d="M1893.912,1435.46a3,3,0,0,1,5.2,0"/><path class="c" d="M1892.18,1434.46a5,5,0,0,1,8.661,0"/><path class="c" d="M1890.448,1433.46a7,7,0,0,1,12.125,0"/></g></svg>