<svg xmlns="http://www.w3.org/2000/svg" width="24" height="24" viewBox="0 0 24 24"><defs><style>.a,.c,.e{fill:#0f0a28;}.b{fill:#fff;}.c{stroke-miterlimit:10;}.d,.e{stroke:none;}</style></defs><g transform="translate(-1884.51 -1395.434)"><circle class="a" cx="12" cy="12" r="12" transform="translate(1884.51 1395.434)"/><path class="b" d="M1898.511,1400.622a5.052,5.052,0,0,0-5,5.075v7.925l1.25-1.192,1.25,1.192,1.25-1.192,1.25,1.192,1.25-1.192,1.25,1.192,1.25-1.192,1.25,1.192V1405.7A5.052,5.052,0,0,0,1898.511,1400.622Zm-2,6.532a1,1,0,1,1,1-1A1,1,0,0,1,1896.511,1407.154Zm4,0a1,1,0,1,1,1-1A1,1,0,0,1,1900.511,1407.154Z"/><g class="c"><path class="d" d="M 1900.010986328125 1414.78955078125 L 1899.165893554688 1413.983764648438 L 1898.260986328125 1413.120971679688 L 1897.356079101562 1413.983764648438 L 1897.010986328125 1414.312866210938 L 1896.665893554688 1413.983764648438 L 1895.760986328125 1413.120971679688 L 1894.856079101562 1413.983764648438 L 1894.510986328125 1414.312866210938 L 1894.165893554688 1413.983764648438 L 1893.260986328125 1413.120971679688 L 1892.356079101562 1413.983764648438 L 1892.010986328125 1414.312866210938 L 1891.665893554688 1413.983764648438 L 1890.760986328125 1413.120971679688 L 1889.856079101562 1413.983764648438 L 1889.010986328125 1414.78955078125 L 1889.010986328125 1413.621948242188 L 1889.010986328125 1405.697021484375 C 1889.010986328125 1402.622924804688 1891.478271484375 1400.121948242188 1894.510986328125 1400.121948242188 C 1897.543701171875 1400.121948242188 1900.010986328125 1402.622924804688 1900.010986328125 1405.697021484375 L 1900.010986328125 1413.621948242188 L 1900.010986328125 1414.78955078125 Z M 1896.510986328125 1405.654052734375 C 1896.235229492188 1405.654052734375 1896.010986328125 1405.878295898438 1896.010986328125 1406.154052734375 C 1896.010986328125 1406.4296875 1896.235229492188 1406.654052734375 1896.510986328125 1406.654052734375 C 1896.786743164062 1406.654052734375 1897.010986328125 1406.4296875 1897.010986328125 1406.154052734375 C 1897.010986328125 1405.878295898438 1896.786743164062 1405.654052734375 1896.510986328125 1405.654052734375 Z M 1892.510986328125 1405.654052734375 C 1892.235229492188 1405.654052734375 1892.010986328125 1405.878295898438 1892.010986328125 1406.154052734375 C 1892.010986328125 1406.4296875 1892.235229492188 1406.654052734375 1892.510986328125 1406.654052734375 C 1892.786743164062 1406.654052734375 1893.010986328125 1406.4296875 1893.010986328125 1406.154052734375 C 1893.010986328125 1405.878295898438 1892.786743164062 1405.654052734375 1892.510986328125 1405.654052734375 Z"/><path class="e" d="M 1894.510986328125 1400.621948242188 C 1891.760986328125 1400.621948242188 1889.510986328125 1402.905029296875 1889.510986328125 1405.697021484375 L 1889.510986328125 1413.621948242188 L 1890.760986328125 1412.430053710938 L 1892.010986328125 1413.621948242188 L 1893.260986328125 1412.430053710938 L 1894.510986328125 1413.621948242188 L 1895.760986328125 1412.430053710938 L 1897.010986328125 1413.621948242188 L 1898.260986328125 1412.430053710938 L 1899.510986328125 1413.621948242188 L 1899.510986328125 1405.697021484375 C 1899.510986328125 1402.905029296875 1897.260986328125 1400.621948242188 1894.510986328125 1400.621948242188 M 1892.510986328125 1407.154052734375 C 1891.9580078125 1407.154052734375 1891.510986328125 1406.70703125 1891.510986328125 1406.154052734375 C 1891.510986328125 1405.60205078125 1891.9580078125 1405.154052734375 1892.510986328125 1405.154052734375 C 1893.06298828125 1405.154052734375 1893.510986328125 1405.60205078125 1893.510986328125 1406.154052734375 C 1893.510986328125 1406.70703125 1893.06298828125 1407.154052734375 1892.510986328125 1407.154052734375 M 1896.510986328125 1407.154052734375 C 1895.9580078125 1407.154052734375 1895.510986328125 1406.70703125 1895.510986328125 1406.154052734375 C 1895.510986328125 1405.60205078125 1895.9580078125 1405.154052734375 1896.510986328125 1405.154052734375 C 1897.06298828125 1405.154052734375 1897.510986328125 1405.60205078125 1897.510986328125 1406.154052734375 C 1897.510986328125 1406.70703125 1897.06298828125 1407.154052734375 1896.510986328125 1407.154052734375 M 1894.510986328125 1399.621948242188 C 1897.8193359375 1399.621948242188 1900.510986328125 1402.34716796875 1900.510986328125 1405.697021484375 L 1900.510986328125 1413.621948242188 L 1900.510986328125 1415.957153320312 L 1898.820922851562 1414.345703125 L 1898.260986328125 1413.811767578125 L 1897.701049804688 1414.345703125 L 1897.010986328125 1415.003662109375 L 1896.320922851562 1414.345703125 L 1895.760986328125 1413.811767578125 L 1895.201049804688 1414.345703125 L 1894.510986328125 1415.003662109375 L 1893.820922851562 1414.345703125 L 1893.260986328125 1413.811767578125 L 1892.701049804688 1414.345703125 L 1892.010986328125 1415.003662109375 L 1891.320922851562 1414.345703125 L 1890.760986328125 1413.811767578125 L 1890.201049804688 1414.345703125 L 1888.510986328125 1415.957153320312 L 1888.510986328125 1413.621948242188 L 1888.510986328125 1405.697021484375 C 1888.510986328125 1402.34716796875 1891.20263671875 1399.621948242188 1894.510986328125 1399.621948242188 Z"/></g><path class="b" d="M1894.511,1400.622a5.052,5.052,0,0,0-5,5.075v7.925l1.25-1.192,1.25,1.192,1.25-1.192,1.25,1.192,1.25-1.192,1.25,1.192,1.25-1.192,1.25,1.192V1405.7A5.052,5.052,0,0,0,1894.511,1400.622Zm-2,6.532a1,1,0,1,1,1-1A1,1,0,0,1,1892.511,1407.154Zm4,0a1,1,0,1,1,1-1A1,1,0,0,1,1896.511,1407.154Z"/></g></svg>