<svg xmlns="http://www.w3.org/2000/svg" xmlns:xlink="http://www.w3.org/1999/xlink" width="50" height="30" viewBox="0 0 50 30"><defs><path id="giyba" d="M636 574c0-1.5 1.5-3 3-3h44c1.5 0 3 1.5 3 3v24c0 1.5-1.5 3-3 3h-44c-1.5 0-3-1.5-3-3z"/><path id="giybb" d="M641 582c0-.5.5-1 1-1h7c.5 0 1 .5 1 1v5c0 .5-.5 1-1 1h-7c-.5 0-1-.5-1-1z"/><path id="giybc" d="M641 593v-2h40v2z"/><path id="giybd" d="M641 597v-2h18v2z"/></defs><g><g transform="translate(-636 -571)"><g><use fill="#8bf8d6" xlink:href="#giyba"/></g><g><use fill="#fff" xlink:href="#giybb"/></g><g><g><use fill="#46d7aa" xlink:href="#giybc"/></g><g><use fill="#46d7aa" xlink:href="#giybd"/></g></g></g></g></svg>