<svg xmlns="http://www.w3.org/2000/svg" width="56" height="68" viewBox="0 0 56 68"><defs><style>.a{fill:#ec2024;}.b,.d{fill:#fff;}.c{fill:#231f20;}.d{fill-rule:evenodd;}</style></defs><g transform="translate(-356.058 -1144.104)"><rect class="a" width="56" height="55.737" transform="translate(356.058 1144.104)"/><path class="b" d="M375.772,1191.925h-8.736v-30.211h-5.712v-5.128c3.92.056,6.5-1.561,7.9-5.351h6.552Z"/><path class="b" d="M383.834,1180.332c0-4.014.9-6.857,4.2-9.365a11.09,11.09,0,0,1-3.752-8.807c0-6.41,4.089-10.925,10.809-10.925s10.808,4.515,10.808,10.925a11.089,11.089,0,0,1-3.751,8.807c3.3,2.508,4.2,5.351,4.2,9.365,0,7.3-2.3,12.263-11.257,12.263S383.834,1187.633,383.834,1180.332Zm11.257-5.686c-2.016,0-2.52,1.393-2.52,5.184,0,3.846.5,5.184,2.52,5.184s2.52-1.338,2.52-5.184C397.611,1176.039,397.107,1174.646,395.091,1174.646Zm0-16.053c-1.849,0-2.3.892-2.3,4.738s.447,4.737,2.3,4.737,2.3-.891,2.3-4.737S396.939,1158.593,395.091,1158.593Z"/><path class="c" d="M356.058,1212.1h56v-68h-56m54.88,54.622h-53.76v-53.508h53.76Z"/><path class="c" d="M406.209,1146.333v.415h-.886v2.792H404.8v-2.792h-.886v-.415Zm3.609,3.207h-.52v-2.525h-.016l-.892,2.525h-.425l-.848-2.525H407.1v2.525h-.52v-3.207h.827l.8,2.385h.015l.782-2.385h.81Z"/><path class="b" d="M359.615,1207.923h.95l.873-4.227h.02l.912,4.227h.891l1.232-5.174h-.852l-.8,4.23h-.021l-.864-4.23h-.959l-.883,4.23h-.02l-.834-4.23H358.4l1.213,5.174Z"/><path class="b" d="M365.9,1207.923h.95l.873-4.227h.02l.912,4.227h.891l1.232-5.174h-.853l-.8,4.23h-.02l-.864-4.23h-.959l-.882,4.23h-.02l-.834-4.23h-.853l1.212,5.174Z"/><path class="b" d="M372.189,1207.923h.951l.873-4.227h.019l.913,4.227h.891l1.232-5.174h-.852l-.806,4.23h-.019l-.864-4.23h-.959l-.883,4.23h-.019l-.835-4.23h-.855l1.214,5.174Z"/><path class="b" d="M377.527,1207.923h.891V1206.9h-.891v1.022Z"/><path class="d" d="M380.436,1205.338c0-1.179.146-2.027,1.048-2.027.758,0,.951.791.951,1.93,0,1.332-.193,2.124-.951,2.124-.873,0-1.048-1.023-1.048-2.027Zm-.766,4.286h.814v-2.288h.021a1.176,1.176,0,0,0,1.086.723c1.348,0,1.7-1.64,1.7-2.818,0-1.535-.465-2.627-1.7-2.627a1.178,1.178,0,0,0-1.125.774h-.02v-.639h-.776v6.875Z"/><path class="d" d="M384.871,1204.8v-.193c0-.307.1-1.351.95-1.351.718,0,.9.685.9,1.264v.28Zm2.7.638v-.328c0-1.11-.146-2.492-1.736-2.492s-1.852,1.5-1.852,2.793c0,1.775.533,2.652,1.8,2.652a1.753,1.753,0,0,0,1.744-1.834h-.812c0,.387-.109,1.2-.884,1.2-1,0-1-1.2-1-1.99Z"/><path class="d" d="M390.078,1203.311c.873,0,1.048,1.022,1.048,2.027,0,1.06-.175,1.892-1.058,1.892-.812,0-.94-1.053-.94-1.892,0-1.236.193-2.027.95-2.027Zm1.814-.562h-.775v.658h-.02a1.17,1.17,0,0,0-1.126-.793c-1.318,0-1.7,1.323-1.7,2.724,0,.686.1,2.585,1.609,2.585a1.236,1.236,0,0,0,1.173-.693h.021v.676c0,.357.038,1.158-1.011,1.158-.426,0-.795-.184-.833-.656h-.815a1.5,1.5,0,0,0,1.7,1.293c1.049,0,1.767-.559,1.767-2.105v-4.847Z"/><path class="d" d="M393.011,1207.923h.813v-5.174h-.813v5.174Zm0-5.964h.813v-.928h-.813v.928Z"/><path class="b" d="M395.123,1207.923h.893V1206.9h-.893v1.022Z"/><path class="d" d="M397.316,1207.923h.816v-5.174h-.816v5.174Zm0-5.964h.816v-.928h-.816v.928Z"/><path class="b" d="M399.246,1207.923h.813v-3.57a1,1,0,0,1,1.03-1.042c.736,0,.766.646.766,1.042v3.57h.815v-3.667c0-.608,0-1.642-1.37-1.642a1.389,1.389,0,0,0-1.259.745h-.02v-.61h-.775v5.174Z"/><path class="b" d="M403.98,1207.923h.817v-4.535h.89v-.639h-.89v-.607c0-.357.173-.492.523-.492h.377v-.7h-.591c-.786,0-1.126.406-1.126,1.187v.607h-.756v.639h.756v4.535Z"/><path class="d" d="M406,1205.338c0,1.458.37,2.721,1.872,2.721s1.872-1.263,1.872-2.721-.369-2.724-1.872-2.724-1.872,1.265-1.872,2.724Zm1.853,2.086c-.835,0-1-.968-1-2.086s.175-2.086,1-2.086c.872,0,1.039.965,1.039,2.086s-.175,2.086-1.039,2.086Z"/></g></svg>