<svg xmlns="http://www.w3.org/2000/svg" width="56" height="68" viewBox="0 0 56 68"><defs><style>.a{fill:#98c93c;}.b,.d{fill:#fff;}.c{fill:#231f20;}.d{fill-rule:evenodd;}</style></defs><g transform="translate(87.129 -1144.104)"><rect class="a" width="56" height="55.737" transform="translate(-87.129 1144.104)"/><path class="b" d="M-62.935,1167.511h1.9c3.024,0,3.584-1.561,3.584-4.292,0-3.4-.671-4.515-2.352-4.515-1.4,0-2.184,1.17-2.184,3.9v1.561h-8.232c0-8.306,2.632-12.932,11.033-12.932,6.44,0,10.472,3.679,10.472,11.26,0,5.016-1.568,7.134-4.032,8.081,2.912,1.617,4.592,3.345,4.592,9.309,0,7.915-2.968,12.71-11.48,12.71-9.913,0-11.2-6.411-11.145-14.884h8.624v3.68c0,2.229.9,3.176,2.184,3.176,1.68,0,2.745-1.17,2.745-4.905,0-4.124-.9-5.574-4.032-5.574h-1.68Z"/><path class="c" d="M-87.129,1212.1h56v-68h-56m54.88,54.622h-53.76v-53.508h53.76Z"/><path class="c" d="M-36.978,1146.333v.415h-.886v2.792h-.521v-2.792h-.886v-.415Zm3.609,3.207h-.52v-2.525H-33.9l-.892,2.525h-.424l-.849-2.525h-.016v2.525h-.52v-3.207h.827l.8,2.385h.015l.782-2.385h.81Z"/><path class="b" d="M-83.572,1207.923h.95l.873-4.227h.02l.912,4.227h.891l1.232-5.174h-.852l-.8,4.23h-.021l-.864-4.23h-.959l-.883,4.23h-.02l-.834-4.23h-.854l1.213,5.174Z"/><path class="b" d="M-77.285,1207.923h.95l.873-4.227h.02l.912,4.227h.891l1.232-5.174h-.853l-.8,4.23h-.02l-.864-4.23h-.959l-.882,4.23h-.02l-.834-4.23H-78.5l1.212,5.174Z"/><path class="b" d="M-71,1207.923h.951l.873-4.227h.019l.913,4.227h.891l1.232-5.174h-.852l-.806,4.23H-67.8l-.864-4.23h-.959l-.883,4.23h-.019l-.835-4.23h-.855l1.214,5.174Z"/><path class="b" d="M-65.66,1207.923h.891V1206.9h-.891v1.022Z"/><path class="d" d="M-62.751,1205.338c0-1.179.146-2.027,1.048-2.027.758,0,.951.791.951,1.93,0,1.332-.193,2.124-.951,2.124-.873,0-1.048-1.023-1.048-2.027Zm-.766,4.286h.814v-2.288h.021a1.176,1.176,0,0,0,1.086.723c1.348,0,1.7-1.64,1.7-2.818,0-1.535-.465-2.627-1.7-2.627a1.179,1.179,0,0,0-1.125.774h-.02v-.639h-.776v6.875Z"/><path class="d" d="M-58.316,1204.8v-.193c0-.307.1-1.351.95-1.351.718,0,.9.685.9,1.264v.28Zm2.705.638v-.328c0-1.11-.146-2.492-1.736-2.492s-1.852,1.5-1.852,2.793c0,1.775.533,2.652,1.8,2.652a1.753,1.753,0,0,0,1.744-1.834h-.812c0,.387-.108,1.2-.884,1.2-1,0-1-1.2-1-1.99Z"/><path class="d" d="M-53.109,1203.311c.873,0,1.048,1.022,1.048,2.027,0,1.06-.175,1.892-1.058,1.892-.812,0-.94-1.053-.94-1.892,0-1.236.193-2.027.95-2.027Zm1.814-.562h-.775v.658h-.02a1.17,1.17,0,0,0-1.126-.793c-1.318,0-1.695,1.323-1.695,2.724,0,.686.095,2.585,1.609,2.585a1.236,1.236,0,0,0,1.173-.693h.021v.676c0,.357.038,1.158-1.011,1.158-.426,0-.8-.184-.833-.656h-.815a1.5,1.5,0,0,0,1.7,1.293c1.049,0,1.767-.559,1.767-2.105v-4.847Z"/><path class="d" d="M-50.176,1207.923h.813v-5.174h-.813v5.174Zm0-5.964h.813v-.928h-.813v.928Z"/><path class="b" d="M-48.064,1207.923h.893V1206.9h-.893v1.022Z"/><path class="d" d="M-45.871,1207.923h.816v-5.174h-.816v5.174Zm0-5.964h.816v-.928h-.816v.928Z"/><path class="b" d="M-43.941,1207.923h.813v-3.57a1,1,0,0,1,1.03-1.042c.736,0,.766.646.766,1.042v3.57h.815v-3.667c0-.608,0-1.642-1.37-1.642a1.39,1.39,0,0,0-1.259.745h-.02v-.61h-.775v5.174Z"/><path class="b" d="M-39.207,1207.923h.817v-4.535h.89v-.639h-.89v-.607c0-.357.173-.492.523-.492h.377v-.7h-.591c-.786,0-1.126.406-1.126,1.187v.607h-.756v.639h.756v4.535Z"/><path class="d" d="M-37.19,1205.338c0,1.458.37,2.721,1.872,2.721s1.872-1.263,1.872-2.721-.369-2.724-1.872-2.724-1.872,1.265-1.872,2.724Zm1.853,2.086c-.835,0-1-.968-1-2.086s.175-2.086,1-2.086c.872,0,1.039.965,1.039,2.086s-.175,2.086-1.039,2.086Z"/></g></svg>