<svg xmlns="http://www.w3.org/2000/svg" xmlns:xlink="http://www.w3.org/1999/xlink" width="130" height="24" viewBox="0 0 130 24"><defs><path id="1zuga" d="M493.09 640.882c0-1.14-.78-1.96-1.96-1.96h-2.17v3.92h2.17c1.18 0 1.96-.82 1.96-1.96zm3 0c0 2.7-2.08 4.7-4.83 4.7h-2.3v4.27H486v-13.67h5.26c2.74 0 4.83 2 4.83 4.7z"/><path id="1zugb" d="M497.95 635.502h2.85v14.35h-2.85z"/><path id="1zugc" d="M511.48 644.562c0-1.66-1.21-2.89-2.87-2.89-1.66 0-2.87 1.24-2.87 2.89 0 1.65 1.22 2.89 2.87 2.89 1.66 0 2.87-1.23 2.87-2.89zm2.8-5.27v10.55h-2.24l-.25-.94c-.91.79-2.09 1.26-3.42 1.26-3.17 0-5.53-2.4-5.53-5.59 0-3.18 2.36-5.56 5.53-5.56 1.35 0 2.55.48 3.46 1.29l.3-1.01z"/><path id="1zugd" d="M527.34 639.302l-4.6 10.41c-1.26 2.86-2.38 3.94-4.74 3.94h-1.18v-2.56h.99c1.37 0 1.73-.37 2.38-1.96l.04-.09-4.47-9.74h3.1l2.81 6.49 2.63-6.49z"/><path id="1zuge" d="M535.96 644.302c0-1.57-1.12-2.72-2.69-2.72-1.56 0-2.69 1.15-2.69 2.72 0 1.58 1.12 2.73 2.69 2.73 1.56 0 2.69-1.15 2.69-2.73zm2.78-5v9.32c0 3.3-2.05 5.32-5.39 5.32-2.86 0-4.89-1.46-5.37-3.87h2.84c.32.95 1.44 1.43 2.49 1.43 1.44 0 2.64-.93 2.64-2.48v-.39c-.84.6-1.87.94-3.01.94-2.95 0-5.24-2.31-5.24-5.28 0-2.95 2.3-5.3 5.24-5.3 1.37 0 2.59.5 3.51 1.35l.45-1.04z"/><path id="1zugf" d="M547.82 639.252v2.69h-1.24c-1.61 0-2.24.71-2.24 2.44v5.48h-2.85v-10.56h1.83l.51 1.29c.75-.93 1.7-1.35 3.06-1.35h.93z"/><path id="1zugg" d="M569.87 645.402v-6.1h2.85v5.77c0 1.5.79 2.39 2.11 2.39 1.32 0 2.1-.91 2.1-2.39v-5.77h2.85v6.09c0 2.85-1.96 4.75-4.95 4.75-2.97.01-4.96-1.89-4.96-4.74z"/><path id="1zugh" d="M592.29 643.462v6.39h-2.85v-5.93c0-1.59-.61-2.36-1.84-2.36-1.47 0-2.37 1.05-2.37 2.75v5.54h-2.85v-10.55h1.96l.56 1.3c.8-.95 2.06-1.55 3.49-1.55 2.4 0 3.9 1.74 3.9 4.41z"/><path id="1zugi" d="M602.86 644.582c0-1.65-1.22-2.89-2.87-2.89-1.65 0-2.87 1.23-2.87 2.89 0 1.66 1.21 2.89 2.87 2.89 1.66 0 2.87-1.24 2.87-2.89zm2.64-9.08v14.35h-2.11l-.34-.88c-.88.75-2.02 1.19-3.3 1.19-3.2 0-5.55-2.4-5.55-5.59 0-3.2 2.35-5.57 5.55-5.57 1.09 0 2.08.32 2.89.87v-4.37z"/><path id="1zugj" d="M616 647.232v2.62h-8.72v-.32l4.5-7.64h-4.06v-2.59H616v.39l-4.44 7.54z"/><path id="1zugk" d="M563.52 635.832l.62-1.43c.22-.51-.02-1.1-.52-1.32-.51-.22-1.1.02-1.32.52l-.62 1.43c.32.1.63.22.94.35.31.14.61.29.9.45z"/><path id="1zugl" d="M553.75 653.332l-.62 1.43c-.22.51.02 1.1.52 1.32.51.22 1.1-.02 1.32-.52l.62-1.43a9.436 9.436 0 0 1-1.84-.8z"/><path id="1zugm" d="M556.79 651.342l.81-1.86c1.96.41 3.99-.39 5.14-2.03l-3.59-1.56.8-1.84 5.44 2.36c-.09.32-.19.64-.33.95-1.39 3.25-4.96 4.88-8.27 3.98zm5.52-12.73a7.018 7.018 0 0 1 3.32 5.73l-2.13-.92a4.982 4.982 0 0 0-2-2.93zm-7.36 11.93c-.61-.38-1.14-.83-1.6-1.35l5.04-11.62c.69-.02 1.39.05 2.08.24zm-2.87-3.46c-.63-1.65-.65-3.55.11-5.29a6.998 6.998 0 0 1 3.79-3.7zm10.14-10.78c-4.57-1.98-9.88.12-11.87 4.69-1.99 4.57.12 9.88 4.69 11.87 4.57 1.98 9.88-.12 11.87-4.69 1.98-4.57-.12-9.89-4.69-11.87z"/></defs><g><g transform="translate(-486 -633)"><g><g><use fill="#b7b5be" xlink:href="#1zuga"/></g><g><use fill="#b7b5be" xlink:href="#1zugb"/></g><g><use fill="#b7b5be" xlink:href="#1zugc"/></g><g><use fill="#b7b5be" xlink:href="#1zugd"/></g><g><use fill="#b7b5be" xlink:href="#1zuge"/></g><g><use fill="#b7b5be" xlink:href="#1zugf"/></g><g><g><use fill="#b7b5be" xlink:href="#1zugg"/></g><g><use fill="#b7b5be" xlink:href="#1zugh"/></g><g><use fill="#b7b5be" xlink:href="#1zugi"/></g><g><use fill="#b7b5be" xlink:href="#1zugj"/></g></g></g><g><g><g><use fill="#b7b5be" xlink:href="#1zugk"/></g><g><use fill="#b7b5be" xlink:href="#1zugl"/></g></g><g><use fill="#b7b5be" xlink:href="#1zugm"/></g></g></g></g></svg>