<svg xmlns="http://www.w3.org/2000/svg" width="40" height="40" viewBox="0 0 40 40"><g><g><path fill="#868493" d="M40 20c0 11.047-8.953 20-20 20S0 31.047 0 20 8.953 0 20 0s20 8.953 20 20zM20 2.353C10.27 2.353 2.353 10.27 2.353 20c0 9.73 7.918 17.647 17.647 17.647 9.73 0 17.647-7.918 17.647-17.647 0-9.73-7.918-17.647-17.647-17.647"/></g><g><g><path fill="#868493" d="M20 8.647c-4.588 0-8.33 3.812-8.33 8.459v13.212l2.083-1.989 2.082 1.989 2.083-1.989L20 30.318l2.082-1.989 2.083 1.989 2.082-1.989 2.082 1.989V17.106c0-4.659-3.74-8.459-8.329-8.459z"/></g></g><g><g><g><path fill="#fff" d="M15 17.87a1.67 1.67 0 1 1 3.341 0 1.67 1.67 0 0 1-3.341 0z"/></g></g><g><g><path fill="#fff" d="M21.659 17.87a1.67 1.67 0 1 1 3.341 0 1.67 1.67 0 0 1-3.341 0z"/></g></g></g></g></svg>