<svg xmlns="http://www.w3.org/2000/svg" viewBox="0 0 40 40"><defs><style>.a{fill:none;}.b{fill:#868493;}</style></defs><g transform="translate(-786 -437)"><rect class="a" width="40" height="40" transform="translate(786 437)"/><g transform="translate(801 450)"><path class="b" d="M5.69,13.2H0V0H5.45C8.21,0,9.74,1.44,9.74,3.4A3.045,3.045,0,0,1,7.49,6.43a3.2,3.2,0,0,1,2.55,3.2C10.04,11.72,8.43,13.2,5.69,13.2ZM5.07,2.14H2.65V5.45H5.07c1.25,0,1.97-.57,1.97-1.65C7.03,2.74,6.32,2.14,5.07,2.14Zm.19,5.35H2.65v3.56H5.32c1.29,0,2.04-.62,2.04-1.74C7.36,8.17,6.54,7.49,5.26,7.49Z"/></g></g></svg>