<svg xmlns="http://www.w3.org/2000/svg" width="24" height="24" viewBox="0 0 24 24"><defs><style>.a{fill:#0f0a28;}.b{fill:#fff;}</style></defs><g transform="translate(-1884.51 -1363.638)"><circle class="a" cx="12" cy="12" r="12" transform="translate(1884.51 1363.638)"/><path class="b" d="M1896.51,1368.826a5.052,5.052,0,0,0-5,5.075v7.925l1.25-1.192,1.25,1.192,1.25-1.192,1.25,1.192,1.25-1.192,1.25,1.192,1.25-1.192,1.25,1.192V1373.9A5.052,5.052,0,0,0,1896.51,1368.826Zm-2,6.532a1,1,0,1,1,1-1A1,1,0,0,1,1894.51,1375.358Zm4,0a1,1,0,1,1,1-1A1,1,0,0,1,1898.51,1375.358Z"/></g></svg>