<svg xmlns="http://www.w3.org/2000/svg" width="44" height="44" viewBox="0 0 44 44"><defs><style>.a{fill:#1da1f2;}.b{fill:#fff;}.c{fill:none;}</style></defs><g transform="translate(-1421.542 -1237.138)"><rect class="a" width="44" height="44" rx="2.43" transform="translate(1421.542 1237.138)"/><path class="b" d="M1438.44,1270.313c10.377,0,16.053-8.6,16.053-16.054,0-.244,0-.487-.016-.729a11.5,11.5,0,0,0,2.815-2.921,11.232,11.232,0,0,1-3.241.888,5.66,5.66,0,0,0,2.481-3.121,11.286,11.286,0,0,1-3.583,1.37,5.647,5.647,0,0,0-9.615,5.146,16.022,16.022,0,0,1-11.628-5.9,5.644,5.644,0,0,0,1.747,7.531,5.584,5.584,0,0,1-2.561-.706v.072a5.646,5.646,0,0,0,4.526,5.531,5.637,5.637,0,0,1-2.547.1,5.649,5.649,0,0,0,5.271,3.919,11.306,11.306,0,0,1-8.35,2.338,15.97,15.97,0,0,0,8.648,2.53"/><rect class="c" width="44" height="44" transform="translate(1421.542 1237.138)"/></g></svg>