<svg xmlns="http://www.w3.org/2000/svg" width="50" height="50" viewBox="0 0 50 50"><defs><style>.a{fill:#868493;}.b{fill:none;}</style></defs><g transform="translate(-1319 -624)"><g transform="translate(1332 637)"><path class="a" d="M24,4H18V3.26A3.261,3.261,0,0,0,14.74,0H9.26A3.261,3.261,0,0,0,6,3.26V4H0V6H2.13l.95,14.72A3.244,3.244,0,0,0,6.3,24H17.7a3.25,3.25,0,0,0,3.22-3.28L21.87,6H24ZM8,3.26A1.255,1.255,0,0,1,9.26,2h5.48A1.255,1.255,0,0,1,16,3.26V4H8ZM18.93,20.72A1.323,1.323,0,0,1,17.7,22H6.3a1.3,1.3,0,0,1-1.22-1.28L4.13,6H19.86Z"/><path class="a" d="M12,8a1,1,0,0,0-1,1V19a1,1,0,0,0,2,0V9A1,1,0,0,0,12,8Z"/><path class="a" d="M16.54,8.01a.986.986,0,0,0-1.05.95L15,18.94a1,1,0,0,0,.95,1.05H16a1.007,1.007,0,0,0,1-.95l.5-9.99A1,1,0,0,0,16.54,8.01Z"/><path class="a" d="M7.46,8.01a.986.986,0,0,0-.95,1.05L7,19.04a1.007,1.007,0,0,0,1,.95h.05A.992.992,0,0,0,9,18.94L8.5,8.96A.971.971,0,0,0,7.46,8.01Z"/></g><rect class="b" width="50" height="50" transform="translate(1319 624)"/></g></svg>