<svg xmlns="http://www.w3.org/2000/svg" viewBox="0 0 40 40"><defs><style>.a{fill:none;}.b{fill:#868493;}</style></defs><g transform="translate(-693 -439)"><rect class="a" width="40" height="40" transform="translate(693 439)"/><g transform="translate(706 451)"><path class="b" d="M4.01,3.33V7.27H0V4.81A6.05,6.05,0,0,1,.5,2.32,8.253,8.253,0,0,1,2.18,0L3.62,1.15A5.881,5.881,0,0,0,2.18,3.33Z"/><path class="b" d="M14.55,8.73v2.46a6.112,6.112,0,0,1-.5,2.51A7.716,7.716,0,0,1,12.34,16l-1.42-1.15a7.517,7.517,0,0,0,.93-1.13,3.816,3.816,0,0,0,.49-1.05h-1.8V8.73Z"/></g></g></svg>