<svg xmlns="http://www.w3.org/2000/svg" width="47" height="70" viewBox="0 0 47 70"><defs><style>.a{fill:#fff;}.b{fill:#231f20;}</style></defs><g transform="translate(-490 -579)"><g transform="translate(490 579)"><path class="a" d="M113.417,952.742h-47v70h47v-70Z" transform="translate(-66.417 -952.742)"/><g transform="translate(0.678 0.751)"><path class="b" d="M112.74,953.493v68.5H67.1v-68.5H112.74" transform="translate(-67.095 -953.493)"/><rect class="a" width="40.757" height="11.357" transform="translate(2.28 2.435)"/><rect class="a" width="40.78" height="41.757" transform="translate(2.262 16.271)"/><g transform="translate(2.27 60.347)"><path class="a" d="M69.365,1019.522v-5.544h8.12v1.3H72.627v.792h4.112v1.293H72.627v.868h5.047v1.293Z" transform="translate(-69.365 -1013.84)"/><path class="a" d="M84.573,1015.593a.612.612,0,0,0-.471-.375,2.945,2.945,0,0,0-.842-.1c-.718,0-1.039.117-1.039.324,0,.82,5.726.3,5.726,2.322,0,1.284-1.925,1.911-4.66,1.911-2.628,0-4.341-.855-4.41-1.856H82a.79.79,0,0,0,.542.436,2.945,2.945,0,0,0,.928.14c.815,0,1.358-.144,1.358-.406,0-.841-5.731-.264-5.731-2.377,0-1.178,1.827-1.769,4.317-1.769,2.763,0,4.023.783,4.261,1.753Z" transform="translate(-69.264 -1013.84)"/><path class="a" d="M92.832,1016.383h1.282c1.01,0,1.552-.147,1.552-.529s-.552-.578-1.314-.578h-1.52Zm0,1.208v1.931H89.569v-5.544h4.7c3.314,0,4.408.508,4.408,1.585,0,.641-.509,1.173-1.672,1.359,1.05.212,1.687.343,1.687,1.461,0,.721-.042.972.345.972v.167H95.733a2.133,2.133,0,0,1-.164-.969c0-.728-.221-.962-1.742-.962Z" transform="translate(-69.147 -1013.84)"/><path class="a" d="M103.946,1015.276v.928h1.359c.65,0,1.122-.168,1.122-.485,0-.434-.643-.443-1.328-.443Zm0,1.931v1.022h1.424c.808,0,1.414-.094,1.414-.507,0-.485-.757-.515-1.8-.515Zm-3.261,2.315v-5.544h4.759c2.242,0,4.025.3,4.025,1.4,0,.572-.666.987-1.3,1.2,1.078.156,1.655.675,1.655,1.27,0,1.236-1.7,1.672-4.287,1.672Z" transform="translate(-69.031 -1013.84)"/></g><path class="b" d="M72.732,979.9l31.6-7.8,2.431,8.339L96.61,982.938l6.809,23.431-11.3,2.791-6.813-23.431-10.148,2.508Z" transform="translate(-67.095 -953.493)"/><g transform="translate(3.403 4.895)"><path class="b" d="M100.307,958.388h2.657l3.082,3.509-.107-1.468v-2.042h2.717v6.426H106l-3.088-3.5.052,1.517.057,1.983h-2.717Z" transform="translate(-70.164 -958.388)"/><path class="b" d="M90.735,958.388h7.046v1.493H93.566v.926h3.567v1.5H93.566v1.006h4.383v1.5H90.735Z" transform="translate(-70.279 -958.388)"/><path class="b" d="M80.83,958.388h7.048v1.493H83.662v.926h3.565v1.5H83.662v1.006h4.386v1.5H80.83Z" transform="translate(-70.386 -958.388)"/><path class="b" d="M70.5,958.388h7.925v1.686H75.881v4.74H73.042v-4.74H70.5Z" transform="translate(-70.498 -958.388)"/></g></g></g></g></svg>