<svg xmlns="http://www.w3.org/2000/svg" width="24" height="24" viewBox="0 0 24 24"><defs><style>.a{fill:#0f0a28;}.b{fill:#fff;}.c{fill:none;stroke:#fff;stroke-linecap:round;stroke-linejoin:round;}</style></defs><g transform="translate(-1884.51 -1490.822)"><circle class="a" cx="12" cy="12" r="12" transform="translate(1884.51 1490.822)"/><path class="b" d="M1903.608,1502.8c-.471-1.607-.688-2.575-1.522-2.575h-2.356c-.585,0-1.066.836-1.166,1.02h-4.107c-.1-.184-.581-1.02-1.165-1.02h-2.357c-.833,0-1.05.968-1.521,2.575a25.287,25.287,0,0,0-.9,4.933,1.439,1.439,0,0,0,.693,1.448,1.979,1.979,0,0,0,2.155,0,19.516,19.516,0,0,0,1.607-1.986h7.089a19.667,19.667,0,0,0,1.607,1.986,1.979,1.979,0,0,0,2.155,0,1.438,1.438,0,0,0,.694-1.448A25.36,25.36,0,0,0,1903.608,1502.8Z"/><path class="c" d="M1893.6,1495.556h5.809a1.414,1.414,0,0,1,1.414,1.414h0a1.414,1.414,0,0,1-1.414,1.413h-1.126a1.778,1.778,0,0,0-1.778,1.778v1.527"/><path class="c" d="M1899.448,1495.556h-5.808a1.414,1.414,0,0,1-1.414-1.414h0"/></g></svg>