<svg xmlns="http://www.w3.org/2000/svg" xmlns:xlink="http://www.w3.org/1999/xlink" width="32" height="32" viewBox="0 0 32 32"><defs><path id="j5kva" d="M633.738 597.992zm1.43-3.301a8.892 8.892 0 0 0 9.114-3.597l-6.358-2.757 1.414-3.26 9.653 4.185a12.47 12.47 0 0 1-.576 1.687c-2.488 5.739-8.81 8.641-14.677 7.043zm8.36-19.281c3.596 2.216 5.743 6.083 5.89 10.163l-3.78-1.639a8.881 8.881 0 0 0-3.55-5.205zm-13.05 21.168a12.314 12.314 0 0 1-2.834-2.402l8.93-20.595a12.38 12.38 0 0 1 3.687.427zm-5.089-6.14a12.4 12.4 0 0 1 6.915-15.947zm17.975-19.113c-8.106-3.515-17.525.206-21.04 8.312-3.514 8.105.208 17.524 8.313 21.038 8.106 3.515 17.525-.206 21.039-8.312 3.513-8.106-.208-17.525-8.312-21.038z"/></defs><g><g transform="translate(-621 -570)"><use fill="#ffc350" xlink:href="#j5kva"/></g></g></svg>