<svg xmlns="http://www.w3.org/2000/svg" width="50" height="50" viewBox="0 0 50 50"><defs><style>.a{fill:#868493;}.b{fill:none;}</style></defs><g transform="translate(-1285 -628)"><g transform="translate(1300 639)"><path class="a" d="M21,2a1.024,1.024,0,0,1,.71.29,1,1,0,0,1,0,1.41l-9.19,9.19-2.12.71.71-2.12L20.3,2.29A.984.984,0,0,1,21,2m0-2a2.973,2.973,0,0,0-2.12.88L9.69,10.07l-.34.33-.15.45-.7,2.12L7.24,16.76l3.79-1.26,2.12-.71.45-.15.33-.33,9.19-9.19A3,3,0,0,0,21,0Z"/><path class="a" d="M18,13.07v7.18A1.758,1.758,0,0,1,16.25,22H3.75A1.758,1.758,0,0,1,2,20.25V7.75A1.758,1.758,0,0,1,3.75,6h7.18l2-2H3.75A3.751,3.751,0,0,0,0,7.75v12.5A3.751,3.751,0,0,0,3.75,24h12.5A3.751,3.751,0,0,0,20,20.25V11.07Z"/></g><rect class="b" width="50" height="50" transform="translate(1285 628)"/></g></svg>