<svg xmlns="http://www.w3.org/2000/svg" xmlns:xlink="http://www.w3.org/1999/xlink" width="120" height="154" viewBox="0 0 120 154"><defs><path id="q8x9a" d="M1310 306c0-33.144 26.863-60.013 60-60.013s60 26.869 60 60.013-26.863 60.012-60 60.012-60-26.868-60-60.012z"/><path id="q8x9b" d="M1402.493 247.8l4.112-9.485c1.458-3.364-.101-7.31-3.464-8.768-3.363-1.458-7.308.1-8.766 3.464l-4.111 9.484a67.204 67.204 0 0 1 6.249 2.342 66.893 66.893 0 0 1 5.98 2.962z"/><path id="q8x9c" d="M1337.507 364.2l-4.111 9.484c-1.458 3.364.1 7.31 3.464 8.769 3.363 1.459 7.308-.1 8.766-3.465l4.11-9.485a66.884 66.884 0 0 1-6.248-2.34 67.436 67.436 0 0 1-5.981-2.963z"/><path id="q8x9d" d="M1370 261.887l8.448 4.442-1.614-9.407 6.835-6.662-9.445-1.373-4.224-8.558-4.224 8.558-9.445 1.373 6.834 6.662-1.613 9.407z"/><path id="q8x9e" d="M1370 259c-6.345 0-12.5 1.242-18.295 3.693a46.843 46.843 0 0 0-14.94 10.073 46.843 46.843 0 0 0-10.072 14.94 46.708 46.708 0 0 0-3.693 18.293c0 6.345 1.243 12.5 3.693 18.295a46.847 46.847 0 0 0 10.073 14.94 46.844 46.844 0 0 0 14.94 10.073c5.794 2.45 11.95 3.693 18.294 3.693 6.345 0 12.5-1.242 18.294-3.693a46.844 46.844 0 0 0 14.94-10.073 46.845 46.845 0 0 0 10.073-14.94A46.711 46.711 0 0 0 1417 306c0-6.344-1.243-12.5-3.693-18.294a46.844 46.844 0 0 0-10.073-14.94 46.845 46.845 0 0 0-14.94-10.072c-5.794-2.45-11.95-3.693-18.294-3.693zm0 99c-7.02 0-13.83-1.375-20.24-4.087a51.834 51.834 0 0 1-16.53-11.144 51.832 51.832 0 0 1-11.144-16.529c-2.711-6.41-4.086-13.221-4.086-20.24 0-7.02 1.375-13.83 4.086-20.24a51.833 51.833 0 0 1 11.144-16.53 51.83 51.83 0 0 1 16.53-11.143c6.41-2.712 13.22-4.087 20.24-4.087 7.02 0 13.83 1.375 20.241 4.087a51.821 51.821 0 0 1 16.529 11.144 51.829 51.829 0 0 1 11.144 16.528c2.711 6.411 4.086 13.221 4.086 20.24 0 7.02-1.375 13.83-4.086 20.241a51.827 51.827 0 0 1-11.144 16.53 51.82 51.82 0 0 1-16.529 11.143c-6.41 2.712-13.221 4.087-20.241 4.087z"/></defs><g><g transform="translate(-1310 -229)"><use fill="#0f0a28" xlink:href="#q8x9a"/></g><g transform="translate(-1310 -229)"><use fill="#0f0a28" xlink:href="#q8x9b"/></g><g transform="translate(-1310 -229)"><use fill="#0f0a28" xlink:href="#q8x9c"/></g><g transform="translate(-1310 -229)"><use fill="#ffc350" xlink:href="#q8x9d"/></g><g transform="translate(-1310 -229)"><use fill="#ffc350" xlink:href="#q8x9e"/></g></g></svg>