<svg xmlns="http://www.w3.org/2000/svg" width="56" height="68" viewBox="0 0 56 68"><defs><style>.a{fill:#98c93c;}.b,.d{fill:#fff;}.c{fill:#231f20;}.d{fill-rule:evenodd;}</style></defs><g transform="translate(13.264 -1144.104)"><rect class="a" width="56" height="55.737" transform="translate(-13.264 1144.104)"/><path class="b" d="M2.173,1174.088l8.792-22.407H24.8v25.139h2.52v6.911H24.8v8.306H16.173v-8.306h-14Zm14-17.5h-.112L9.454,1176.82h6.719Z"/><path class="c" d="M-13.264,1212.1h56v-68h-56m54.88,54.622h-53.76v-53.508h53.76Z"/><path class="c" d="M36.886,1146.333v.415H36v2.792h-.52v-2.792h-.886v-.415Zm3.61,3.207h-.521v-2.525H39.96l-.893,2.525h-.424l-.849-2.525h-.015v2.525h-.521v-3.207h.827l.8,2.385H38.9l.782-2.385H40.5Z"/><path class="b" d="M-9.708,1207.923h.95l.873-4.227h.02l.912,4.227h.891l1.232-5.174h-.852l-.8,4.23h-.021l-.864-4.23H-8.33l-.883,4.23h-.02l-.834-4.23h-.854l1.213,5.174Z"/><path class="b" d="M-3.42,1207.923h.95l.873-4.227h.02l.912,4.227H.226l1.232-5.174H.605l-.8,4.23H-.22l-.864-4.23h-.959l-.882,4.23h-.02l-.834-4.23h-.853l1.212,5.174Z"/><path class="b" d="M2.866,1207.923h.951l.873-4.227h.019l.913,4.227h.891l1.232-5.174H6.893l-.806,4.23H6.068l-.864-4.23H4.245l-.883,4.23H3.342l-.835-4.23H1.653l1.214,5.174Z"/><path class="b" d="M8.2,1207.923H9.1V1206.9H8.2v1.022Z"/><path class="d" d="M11.114,1205.338c0-1.179.145-2.027,1.048-2.027.757,0,.95.791.95,1.93,0,1.332-.193,2.124-.95,2.124-.873,0-1.048-1.023-1.048-2.027Zm-.766,4.286h.813v-2.288h.021a1.177,1.177,0,0,0,1.086.723c1.348,0,1.7-1.64,1.7-2.818,0-1.535-.466-2.627-1.7-2.627a1.18,1.18,0,0,0-1.125.774h-.02v-.639h-.775v6.875Z"/><path class="d" d="M15.548,1204.8v-.193c0-.307.1-1.351.951-1.351.717,0,.9.685.9,1.264v.28Zm2.7.638v-.328c0-1.11-.145-2.492-1.735-2.492s-1.853,1.5-1.853,2.793c0,1.775.533,2.652,1.8,2.652a1.753,1.753,0,0,0,1.745-1.834H17.4c0,.387-.108,1.2-.883,1.2-1,0-1-1.2-1-1.99Z"/><path class="d" d="M20.756,1203.311c.873,0,1.048,1.022,1.048,2.027,0,1.06-.175,1.892-1.058,1.892-.813,0-.941-1.053-.941-1.892,0-1.236.194-2.027.951-2.027Zm1.813-.562H21.8v.658h-.021a1.169,1.169,0,0,0-1.125-.793c-1.318,0-1.7,1.323-1.7,2.724,0,.686.1,2.585,1.609,2.585a1.237,1.237,0,0,0,1.174-.693h.021v.676c0,.357.038,1.158-1.011,1.158-.427,0-.8-.184-.833-.656H19.1a1.5,1.5,0,0,0,1.7,1.293c1.049,0,1.766-.559,1.766-2.105v-4.847Z"/><path class="d" d="M23.688,1207.923H24.5v-5.174h-.814v5.174Zm0-5.964H24.5v-.928h-.814v.928Z"/><path class="b" d="M25.8,1207.923h.893V1206.9H25.8v1.022Z"/><path class="d" d="M27.993,1207.923h.816v-5.174h-.816v5.174Zm0-5.964h.816v-.928h-.816v.928Z"/><path class="b" d="M29.924,1207.923h.812v-3.57a1,1,0,0,1,1.031-1.042c.736,0,.765.646.765,1.042v3.57h.815v-3.667c0-.608,0-1.642-1.369-1.642a1.389,1.389,0,0,0-1.259.745H30.7v-.61h-.774v5.174Z"/><path class="b" d="M34.657,1207.923h.817v-4.535h.891v-.639h-.891v-.607c0-.357.173-.492.523-.492h.378v-.7h-.591c-.786,0-1.127.406-1.127,1.187v.607H33.9v.639h.755v4.535Z"/><path class="d" d="M36.674,1205.338c0,1.458.371,2.721,1.873,2.721s1.871-1.263,1.871-2.721-.368-2.724-1.871-2.724-1.873,1.265-1.873,2.724Zm1.853,2.086c-.834,0-1-.968-1-2.086s.175-2.086,1-2.086c.873,0,1.039.965,1.039,2.086s-.175,2.086-1.039,2.086Z"/></g></svg>