<svg xmlns="http://www.w3.org/2000/svg" width="56" height="68" viewBox="0 0 56 68"><defs><style>.a{fill:#f89f1b;}.b,.d{fill:#fff;}.c{fill:#231f20;}.d{fill-rule:evenodd;}</style></defs><g transform="translate(-547 -581)"><g transform="translate(265.494 -563.104)"><g transform="translate(281.506 1144.104)"><rect class="a" width="56" height="55.376"/></g><g transform="translate(286.9 1151.444)"><path class="b" d="M301.7,1193.332h-8.951v-31.1H286.9v-5.279c4.017.058,6.656-1.607,8.091-5.509H301.7Z" transform="translate(-286.9 -1151.444)"/><path class="b" d="M319.26,1169.577c1.721-1.607,2.984-2.755,5.853-2.755,5.336,0,8.148,4.533,8.148,12.968,0,7.918-2.067,14.231-11.534,14.231-6.656,0-10.041-3.387-11.246-9.812a64.322,64.322,0,0,1-.574-10.96c.057-5.738.115-9.181.631-11.992,1.206-6.427,4.591-9.813,11.246-9.813,6.025,0,10.9,3.73,10.9,10.042v2.123h-8.378v-.975c0-2.869-1.09-3.615-2.525-3.615-1.721.229-2.467,1.836-2.524,4.131Zm2.582,5.508c-1.779,0-2.582,1.779-2.582,5.566,0,3.845.8,5.566,2.582,5.566,1.893,0,2.7-1.721,2.7-5.566C324.539,1176.864,323.735,1175.085,321.842,1175.085Z" transform="translate(-288.276 -1151.444)"/></g><g transform="translate(281.506 1144.104)"><path class="c" d="M281.506,1212.1h56v-68h-56m54.879,54.621h-53.76v-53.507h53.76Z" transform="translate(-281.506 -1144.104)"/></g><path class="c" d="M332.889,1146.4v.427h-.908v2.874h-.533v-2.874h-.908v-.427Zm3.7,3.3h-.534v-2.6h-.015l-.915,2.6h-.435l-.869-2.6H333.8v2.6h-.533v-3.3h.847l.823,2.455h.015l.8-2.455h.831Z" transform="translate(-1.376)"/><g transform="translate(283.907 1200.627)"><path class="b" d="M285.149,1209.8h.973l.894-4.351h.021l.934,4.351h.913l1.262-5.326h-.873l-.824,4.355h-.021l-.885-4.355h-.983l-.9,4.355h-.02l-.854-4.355h-.875l1.243,5.326Z" transform="translate(-283.907 -1202.627)"/><path class="b" d="M291.591,1209.8h.973l.895-4.351h.021l.934,4.351h.913l1.262-5.326h-.874l-.825,4.355h-.021l-.885-4.355H293l-.9,4.355h-.021l-.854-4.355h-.874l1.242,5.326Z" transform="translate(-283.907 -1202.627)"/><path class="b" d="M298.033,1209.8h.974l.894-4.351h.02l.935,4.351h.913l1.262-5.326h-.873l-.825,4.355h-.02l-.885-4.355h-.983l-.9,4.355h-.02l-.855-4.355h-.876l1.243,5.326Z" transform="translate(-284.289 -1202.627)"/><path class="b" d="M303.5,1209.8h.913v-1.052H303.5v1.052Z" transform="translate(-284.428 -1202.627)"/><path class="d" d="M306.483,1207.139c0-1.214.149-2.087,1.073-2.087.776,0,.974.815.974,1.987,0,1.371-.2,2.187-.974,2.187-.894,0-1.073-1.054-1.073-2.087Zm-.785,4.412h.834v-2.356h.021a1.206,1.206,0,0,0,1.113.746c1.381,0,1.739-1.689,1.739-2.9,0-1.58-.477-2.7-1.739-2.7a1.207,1.207,0,0,0-1.153.8h-.021v-.658H305.7v7.077Z" transform="translate(-284.52 -1202.627)"/><path class="d" d="M311.026,1206.581v-.2c0-.316.1-1.391.974-1.391.735,0,.925.705.925,1.3v.288Zm2.772.657v-.338c0-1.143-.149-2.565-1.779-2.565s-1.9,1.541-1.9,2.875c0,1.827.547,2.731,1.849,2.731a1.8,1.8,0,0,0,1.787-1.889h-.832c0,.4-.111,1.234-.906,1.234-1.023,0-1.023-1.234-1.023-2.048Z" transform="translate(-284.644 -1202.627)"/><path class="d" d="M316.362,1205.052c.894,0,1.073,1.053,1.073,2.087,0,1.091-.179,1.948-1.083,1.948-.833,0-.964-1.084-.964-1.948,0-1.272.2-2.087.974-2.087Zm1.858-.578h-.794v.677H317.4a1.2,1.2,0,0,0-1.153-.816c-1.351,0-1.737,1.362-1.737,2.8,0,.706.1,2.662,1.648,2.662a1.266,1.266,0,0,0,1.2-.714h.021v.7c0,.367.039,1.192-1.035,1.192-.437,0-.815-.189-.854-.676h-.835a1.542,1.542,0,0,0,1.747,1.331c1.075,0,1.81-.575,1.81-2.167v-4.989Z" transform="translate(-284.768 -1202.627)"/><path class="d" d="M319.366,1209.8h.834v-5.327h-.834v5.327Zm0-6.14h.834v-.955h-.834v.955Z" transform="translate(-284.849 -1202.627)"/><path class="b" d="M321.53,1209.8h.914v-1.052h-.914v1.052Z" transform="translate(-284.908 -1202.627)"/><path class="d" d="M323.777,1209.8h.836v-5.327h-.836v5.327Zm0-6.14h.836v-.955h-.836v.955Z" transform="translate(-284.967 -1202.627)"/><path class="b" d="M325.755,1209.8h.832v-3.676a1.029,1.029,0,0,1,1.056-1.073c.754,0,.784.665.784,1.073v3.676h.835v-3.776c0-.625,0-1.69-1.4-1.69a1.424,1.424,0,0,0-1.29.767h-.021v-.628h-.793v5.327Z" transform="translate(-285.283 -1202.627)"/><path class="b" d="M330.605,1209.8h.837v-4.669h.912v-.658h-.912v-.625c0-.368.177-.507.536-.507h.386v-.715h-.605c-.806,0-1.154.418-1.154,1.222v.625h-.774v.658h.774v4.669Z" transform="translate(-285.283 -1202.627)"/><path class="d" d="M332.671,1207.139c0,1.5.38,2.8,1.919,2.8s1.917-1.3,1.917-2.8-.377-2.8-1.917-2.8-1.919,1.3-1.919,2.8Zm1.9,2.147c-.855,0-1.022-1-1.022-2.147s.179-2.147,1.022-2.147c.894,0,1.064.993,1.064,2.147s-.179,2.147-1.064,2.147Z" transform="translate(-285.283 -1202.627)"/></g></g></g></svg>