<svg xmlns="http://www.w3.org/2000/svg" xmlns:xlink="http://www.w3.org/1999/xlink" width="134" height="48" viewBox="0 0 134 48"><defs><path id="lztva" d="M1300 222c0-4 4-8 8-8h118c4 0 8 4 8 8v32c0 4-4 8-8 8h-118c-4 0-8-4-8-8z"/><path id="lztvb" d="M1347.252 225c-.733 0-1.421.284-1.944.807l-8.425 8.425-.311.302-.138.413-.642 1.943-1.155 3.475 3.475-1.155 1.943-.651.413-.138.302-.302 8.426-8.425a2.75 2.75 0 0 0-1.944-4.694zm0 1.834a.94.94 0 0 1 .65.265.913.913 0 0 1 0 1.293l-8.424 8.425-1.944.65.651-1.943 8.425-8.425a.902.902 0 0 1 .642-.265"/><path id="lztvc" d="M1344.502 236.982v6.582c0 .88-.725 1.605-1.605 1.605h-11.46c-.88 0-1.603-.724-1.603-1.605v-11.46c0-.88.724-1.603 1.604-1.603h6.582l1.834-1.834h-8.416a3.44 3.44 0 0 0-3.438 3.438v11.46a3.44 3.44 0 0 0 3.438 3.437h11.46a3.44 3.44 0 0 0 3.437-3.438v-8.415z"/></defs><g><g transform="translate(-1300 -214)"><use fill="#e7e6e9" xlink:href="#lztva"/></g><g transform="translate(-1300 -214)"><use fill="#575368" xlink:href="#lztvb"/></g><g transform="translate(-1300 -214)"><use fill="#575368" xlink:href="#lztvc"/></g></g></svg>