<svg xmlns="http://www.w3.org/2000/svg" width="47" height="70" viewBox="0 0 47 70"><defs><style>.a{fill:#fff;}.b{fill:#231f20;}</style></defs><g transform="translate(56.551 -1046.516)"><path class="a" d="M-9.551,1046.516h-47v70h47v-70Z"/><path class="b" d="M-10.233,1047.267v68.5H-55.868v-68.5h45.635"/><rect class="a" width="40.713" height="11.359" transform="translate(-53.571 1049.702)"/><rect class="a" width="40.736" height="41.757" transform="translate(-53.59 1063.538)"/><path class="a" d="M-53.582,1113.3v-5.544H-45.4v1.3H-50.3v.792h4.141v1.293H-50.3V1112h5.082v1.293Z"/><path class="a" d="M-38.265,1109.368a.612.612,0,0,0-.474-.374,2.95,2.95,0,0,0-.849-.1c-.722,0-1.046.117-1.046.324,0,.82,5.767.305,5.767,2.322,0,1.284-1.939,1.911-4.693,1.911-2.647,0-4.372-.855-4.442-1.856h3.146a.8.8,0,0,0,.546.437,3.012,3.012,0,0,0,.935.14c.821,0,1.367-.145,1.367-.407,0-.841-5.772-.264-5.772-2.377,0-1.178,1.839-1.769,4.348-1.769,2.783,0,4.051.784,4.292,1.753Z"/><path class="a" d="M-29.947,1110.158h1.292c1.017,0,1.562-.147,1.562-.528s-.556-.579-1.323-.579h-1.531Zm0,1.208v1.932h-3.286v-5.545H-28.5c3.338,0,4.441.508,4.441,1.585,0,.641-.514,1.174-1.684,1.36,1.057.211,1.7.342,1.7,1.46,0,.722-.043.972.346.972v.168h-3.33a2.12,2.12,0,0,1-.165-.97c0-.728-.223-.962-1.754-.962Z"/><path class="a" d="M-18.754,1109.051v.928h1.37c.654,0,1.13-.168,1.13-.485,0-.434-.648-.443-1.338-.443Zm0,1.931V1112h1.435c.814,0,1.425-.094,1.425-.507,0-.485-.764-.515-1.814-.515Zm-3.283,2.316v-5.545h4.793c2.257,0,4.054.3,4.054,1.4,0,.572-.671.988-1.31,1.2,1.085.157,1.667.676,1.667,1.271,0,1.235-1.708,1.672-4.318,1.672Z"/><path class="b" d="M-31.711,1089.186c-.68-2.5-2.03-3.96-3.952-4.47,1.2-1.39,1.876-3.538.96-6.913-1.286-4.712-4.551-7-8.52-5.946l-9.025,2.383-.185.047,7.475,27.46,6.038-1.6s-2.449-8.993-2.878-10.577l.293-.078a2.8,2.8,0,0,1,2.049.026c.8.454,1.169,1.828,1.591,3.416l.338,1.266a11.73,11.73,0,0,0,1.85,4.455l.4.531,6.9-1.817-.928-1.178A38.85,38.85,0,0,1-31.711,1089.186Zm-9.88-4.908s-.775.206-1.539.406c-.451-1.655-1.485-5.46-1.936-7.117.759-.2,1.54-.4,1.54-.4.731-.191,1.953-.514,2.846,2.773C-40.509,1080.576-39.732,1083.787-41.591,1084.278Z"/><path class="b" d="M-24.147,1067.294l-8.132,2.146-.977.256,7.473,27.464,6.171-1.625s-2.4-8.827-2.836-10.4c1.042-.279,2.654-.7,2.654-.7,4.814-1.276,6.654-4.982,5.166-10.433C-16.561,1066.894-20.868,1066.433-24.147,1067.294Zm2.516,12.188-2.2.581c-.439-1.624-1.5-5.489-1.933-7.113l1.872-.493c1.064-.283,2.279-.283,3.243,3.256C-20.185,1077.4-20.665,1079.227-21.631,1079.482Z"/><path class="b" d="M-51.631,1058.61h-.811v-6.449h1.5a.744.744,0,0,1,.665.428,2.607,2.607,0,0,1,.244,1.26,2.892,2.892,0,0,1-.166,1.045.809.809,0,0,1-.555.536v.017c.044.012.1.03.183.054a.538.538,0,0,1,.234.161,1.081,1.081,0,0,1,.2.371,2.13,2.13,0,0,1,.085.683c0,.1,0,.245,0,.429s.006.375.014.571.017.378.029.545a1.978,1.978,0,0,0,.046.349h-.8a2.411,2.411,0,0,1-.084-.617c0-.215,0-.426,0-.634,0-.19,0-.372,0-.545a1.839,1.839,0,0,0-.055-.45.645.645,0,0,0-.171-.309.491.491,0,0,0-.352-.116h-.211Zm0-3.663h.36a.258.258,0,0,0,.2-.089.664.664,0,0,0,.129-.228,1.488,1.488,0,0,0,.068-.308c.011-.113.018-.221.018-.322a1.4,1.4,0,0,0-.111-.656.335.335,0,0,0-.3-.191h-.36Z"/><path class="b" d="M-49.731,1058.61l1.073-6.449h1.07l1.053,6.449h-.853l-.215-1.43h-1.108l-.22,1.43Zm1.563-5.208h-.011l-.372,2.787h.775Z"/><path class="b" d="M-44.164,1052.161v1.071h-.9v5.378h-.812v-5.378h-.9v-1.071Z"/><path class="b" d="M-43.787,1058.61v-6.449h.812v6.449Z"/><path class="b" d="M-42.288,1058.61v-6.449h1.1l1.033,4.466h.01v-4.466h.758v6.449h-1.07l-1.057-4.716h-.012v4.716Z"/><path class="b" d="M-36.933,1054.143c0-.148,0-.292-.014-.427a1.424,1.424,0,0,0-.064-.359.6.6,0,0,0-.147-.245.362.362,0,0,0-.258-.094.316.316,0,0,0-.29.2,1.7,1.7,0,0,0-.152.527,5.9,5.9,0,0,0-.055.764q-.01.434-.01.9c0,.505.01.914.028,1.223a4.29,4.29,0,0,0,.09.72.635.635,0,0,0,.178.342.445.445,0,0,0,.285.089.652.652,0,0,0,.207-.034,1.327,1.327,0,0,0,.2-.09v-1.429h-.441v-.991h1.251v3.268c-.053.018-.126.039-.217.063s-.19.047-.293.071-.208.043-.312.059a2.081,2.081,0,0,1-.275.022,1.562,1.562,0,0,1-.813-.183,1.122,1.122,0,0,1-.459-.59,3.659,3.659,0,0,1-.2-1.05c-.032-.428-.046-.948-.046-1.562,0-.405.009-.805.03-1.2a4.578,4.578,0,0,1,.161-1.05,1.715,1.715,0,0,1,.408-.745,1.029,1.029,0,0,1,.777-.287,1.044,1.044,0,0,1,.535.139,1.173,1.173,0,0,1,.4.4,1.959,1.959,0,0,1,.242.652,3.828,3.828,0,0,1,.061.9Z"/><path class="b" d="M-34.224,1052.161h1.464a.834.834,0,0,1,.476.133.991.991,0,0,1,.318.389,2.128,2.128,0,0,1,.18.612,5.058,5.058,0,0,1,.058.795,5.64,5.64,0,0,1-.037.607,2.348,2.348,0,0,1-.146.617,1.257,1.257,0,0,1-.328.478.834.834,0,0,1-.571.192h-.6v2.626h-.812Zm.812,2.832h.451a.235.235,0,0,0,.168-.076.664.664,0,0,0,.128-.2,1.251,1.251,0,0,0,.085-.275,1.789,1.789,0,0,0,.028-.318,3.761,3.761,0,0,0-.018-.376,1.309,1.309,0,0,0-.069-.312.519.519,0,0,0-.142-.209.322.322,0,0,0-.224-.076h-.407Z"/><path class="b" d="M-31.241,1058.61v-6.449h2.119v.992h-1.307v1.589h1.2v.991h-1.2v1.885h1.351v.992Z"/><path class="b" d="M-28.547,1058.61v-6.449h1.1l1.033,4.466h.011v-4.466h.757v6.449h-1.069l-1.059-4.716h-.012v4.716Z"/><path class="b" d="M-24.951,1052.161H-23.6a.955.955,0,0,1,.646.213,1.4,1.4,0,0,1,.384.626,4.249,4.249,0,0,1,.185,1.005q.049.594.049,1.345v.584c0,.224-.009.457-.027.7a5.519,5.519,0,0,1-.1.72,2.372,2.372,0,0,1-.217.63,1.321,1.321,0,0,1-.377.45.928.928,0,0,1-.575.175h-1.322Zm.811,5.457h.393a.4.4,0,0,0,.3-.12.831.831,0,0,0,.179-.388,4.026,4.026,0,0,0,.089-.694c.016-.282.024-.625.024-1.031q0-.447-.008-.848a4.545,4.545,0,0,0-.062-.711,1.367,1.367,0,0,0-.169-.491.363.363,0,0,0-.325-.182h-.42Z"/><path class="b" d="M-21.681,1058.61v-6.449h.811v6.449Z"/><path class="b" d="M-20.182,1058.61v-6.449h1.1l1.032,4.466h.012v-4.466h.757v6.449h-1.07l-1.059-4.716h-.012v4.716Z"/><path class="b" d="M-14.827,1054.143c0-.148-.005-.292-.014-.427a1.421,1.421,0,0,0-.065-.359.576.576,0,0,0-.149-.245.352.352,0,0,0-.258-.094.317.317,0,0,0-.29.2,1.657,1.657,0,0,0-.149.527,6.04,6.04,0,0,0-.058.764c0,.289-.007.588-.007.9,0,.505.008.914.027,1.223a4.073,4.073,0,0,0,.091.72.635.635,0,0,0,.177.342.444.444,0,0,0,.286.089.67.67,0,0,0,.207-.034,1.3,1.3,0,0,0,.2-.09v-1.429h-.442v-.991h1.253v3.268q-.081.027-.216.063c-.093.024-.191.047-.3.071s-.207.043-.311.059a2.08,2.08,0,0,1-.274.022,1.575,1.575,0,0,1-.815-.183,1.133,1.133,0,0,1-.46-.59,3.7,3.7,0,0,1-.2-1.05q-.045-.642-.044-1.562c0-.405.008-.805.029-1.2a4.577,4.577,0,0,1,.161-1.05,1.714,1.714,0,0,1,.407-.745,1.033,1.033,0,0,1,.778-.287,1.037,1.037,0,0,1,.534.139,1.167,1.167,0,0,1,.4.4,1.959,1.959,0,0,1,.242.652,3.939,3.939,0,0,1,.061.9Z"/></g></svg>