<svg xmlns="http://www.w3.org/2000/svg" width="47" height="70" viewBox="0 0 47 70"><defs><style>.a{fill:#fff;}.b{fill:#231f20;}</style></defs><g transform="translate(-1.726 -952.743)"><path class="a" d="M48.725,952.743h-47v70h47v-70Z"/><path class="b" d="M48.043,953.494v68.5H2.409v-68.5H48.043"/><rect class="a" width="40.713" height="11.359" transform="translate(4.705 955.929)"/><rect class="a" width="40.736" height="41.757" transform="translate(4.686 969.764)"/><path class="a" d="M4.694,1019.525v-5.544h8.178v1.3H7.98v.792h4.141v1.293H7.98v.868h5.083v1.293Z"/><path class="a" d="M20.012,1015.595a.617.617,0,0,0-.475-.374,2.985,2.985,0,0,0-.849-.1c-.722,0-1.046.117-1.046.323,0,.82,5.768.306,5.768,2.322,0,1.284-1.939,1.911-4.694,1.911-2.647,0-4.372-.854-4.442-1.855H17.42a.8.8,0,0,0,.546.436,2.979,2.979,0,0,0,.934.14c.821,0,1.368-.145,1.368-.406,0-.841-5.772-.265-5.772-2.378,0-1.178,1.84-1.768,4.348-1.768,2.783,0,4.052.783,4.291,1.752Z"/><path class="a" d="M28.329,1016.385h1.292c1.017,0,1.563-.147,1.563-.528s-.557-.579-1.323-.579H28.329Zm0,1.209v1.931H25.043v-5.544H29.78c3.337,0,4.44.507,4.44,1.585,0,.64-.514,1.173-1.684,1.359,1.057.211,1.7.342,1.7,1.461,0,.721-.043.971.347.971v.168H31.251a2.132,2.132,0,0,1-.165-.969c0-.728-.223-.962-1.754-.962Z"/><path class="a" d="M39.523,1015.278v.928h1.369c.655,0,1.13-.167,1.13-.484,0-.434-.648-.444-1.338-.444Zm0,1.932v1.022h1.434c.814,0,1.425-.094,1.425-.508,0-.484-.764-.514-1.814-.514Zm-3.284,2.315v-5.544h4.793c2.258,0,4.054.3,4.054,1.4,0,.572-.671.988-1.309,1.2,1.084.156,1.666.675,1.666,1.27,0,1.236-1.708,1.672-4.317,1.672Z"/><path class="b" d="M27.636,1001.26H25.882v.959h1.754v1.689h1v-1.689h1.759v-.959H28.632v-1.7h-1Zm-2.793-.429c0-3.369-1.818-5.364-4.835-5.364-4.077,0-5.081,2.766-5.081,5.364,0,3.172,1.6,5.364,4.959,5.364s4.957-2.192,4.957-5.364M7.776,979.416,32.444,972.1l2.472,7.758-12.358,3.661,1.011,3.172,11.419-3.381,2.467,7.758-11.412,3.379,1.066,3.343,12.765-3.785,2.475,7.751-25.073,7.436-9.5-29.778m.939,19.623a8.341,8.341,0,0,0,3.065-1.468v8.113H14.1V995.509H11.84a8.1,8.1,0,0,1-3.125,1.562v1.968"/><path class="b" d="M17.058,1000.735c.018-3.4,1.375-4.19,2.932-4.186,1.739.008,2.727,1.3,2.716,4.282-.011,1.86-.516,4.142-2.745,4.129-2.185-.009-2.917-1.741-2.9-4.225"/><path class="b" d="M5.852,964.833v-6.445H8.394v.993H6.826v1.588H8.272v.991H6.826v1.883h1.62v.99Z"/><path class="b" d="M8.7,958.388H9.716l.724,4.687h.013l.813-4.687h.962l-1.233,6.445H9.853Z"/><path class="b" d="M12.666,964.833v-6.445h2.543v.993H13.641v1.588h1.444v.991H13.641v1.883H15.26v.99Z"/><path class="b" d="M16.847,964.833h-.975v-6.445h1.8a.916.916,0,0,1,.8.43,2.222,2.222,0,0,1,.3,1.258,2.5,2.5,0,0,1-.2,1.043.926.926,0,0,1-.668.538v.016c.05.014.124.031.218.055a.637.637,0,0,1,.282.161,1,1,0,0,1,.241.369,1.809,1.809,0,0,1,.1.683c0,.1,0,.244,0,.429s.006.375.016.571.019.378.035.545a1.814,1.814,0,0,0,.055.347H17.9a2.005,2.005,0,0,1-.1-.615q0-.321,0-.634c0-.191,0-.372,0-.545a1.581,1.581,0,0,0-.064-.451.635.635,0,0,0-.207-.307.662.662,0,0,0-.423-.117h-.251Zm0-3.659h.432a.344.344,0,0,0,.239-.089.649.649,0,0,0,.155-.228,1.2,1.2,0,0,0,.081-.307,2.455,2.455,0,0,0,.022-.322,1.193,1.193,0,0,0-.133-.657.418.418,0,0,0-.364-.19h-.432Z"/><path class="b" d="M20.241,962.6l-1.22-4.215h1.065l.7,2.723.743-2.723h.993l-1.3,4.215v2.23h-.975Z"/><path class="b" d="M24.531,964.94a1.383,1.383,0,0,1-.928-.281,1.59,1.59,0,0,1-.478-.749,4.161,4.161,0,0,1-.174-1.067c-.016-.4-.026-.81-.026-1.232s.01-.842.026-1.241a4.107,4.107,0,0,1,.174-1.062,1.592,1.592,0,0,1,.478-.745,1.681,1.681,0,0,1,1.858,0,1.591,1.591,0,0,1,.477.745,4.064,4.064,0,0,1,.174,1.062q.026.6.025,1.241t-.025,1.232a4.118,4.118,0,0,1-.174,1.067,1.588,1.588,0,0,1-.477.749A1.385,1.385,0,0,1,24.531,964.94Zm0-.964a.419.419,0,0,0,.33-.137.974.974,0,0,0,.188-.425,4.309,4.309,0,0,0,.083-.736c.012-.3.019-.656.019-1.067s-.007-.765-.019-1.066a4.3,4.3,0,0,0-.083-.737.959.959,0,0,0-.188-.423.458.458,0,0,0-.659,0,.926.926,0,0,0-.185.423,4.176,4.176,0,0,0-.085.737q-.019.452-.019,1.066t.019,1.067a4.186,4.186,0,0,0,.085.736.94.94,0,0,0,.185.425A.42.42,0,0,0,24.531,963.976Z"/><path class="b" d="M26.919,964.833v-6.445h1.316l1.239,4.463h.014v-4.463H30.4v6.445H29.112l-1.27-4.713h-.014v4.713Z"/><path class="b" d="M31.217,964.833v-6.445h2.541v.993H32.191v1.588h1.446v.991H32.191v1.883h1.62v.99Z"/><path class="b" d="M35.786,959.409a4.289,4.289,0,0,0,.47-.431,2.719,2.719,0,0,0,.4-.562h.86v6.417h-.972V959.9a3.877,3.877,0,0,1-.367.387c-.131.115-.263.226-.394.331Z"/><path class="b" d="M39.767,958.333a1.216,1.216,0,0,1,.67.166,1.036,1.036,0,0,1,.4.551,3.942,3.942,0,0,1,.186,1.013c.032.415.05.93.05,1.543,0,.5-.012.958-.033,1.366a4.554,4.554,0,0,1-.162,1.043,1.44,1.44,0,0,1-.4.667,1.2,1.2,0,0,1-1.426,0,1.436,1.436,0,0,1-.393-.667,4.487,4.487,0,0,1-.165-1.043c-.019-.408-.031-.863-.031-1.366,0-.613.015-1.128.048-1.543a3.853,3.853,0,0,1,.187-1.013,1.048,1.048,0,0,1,.394-.551A1.213,1.213,0,0,1,39.767,958.333Zm0,.939a.28.28,0,0,0-.226.09.763.763,0,0,0-.117.346,5.591,5.591,0,0,0-.046.713c0,.306,0,.707,0,1.2s0,.879.01,1.186a4.89,4.89,0,0,0,.053.718.761.761,0,0,0,.118.353.251.251,0,0,0,.213.1.255.255,0,0,0,.211-.1.792.792,0,0,0,.121-.353,5.522,5.522,0,0,0,.053-.718c0-.307.009-.7.009-1.186s0-.9-.007-1.2a5.412,5.412,0,0,0-.046-.713.692.692,0,0,0-.121-.346A.278.278,0,0,0,39.767,959.272Z"/><path class="b" d="M42.457,959.64h.716V961.4h1.092v.991H43.173v1.758h-.716v-1.758h-1.1V961.4h1.1Z"/></g></svg>