<svg xmlns="http://www.w3.org/2000/svg" width="47" height="70" viewBox="0 0 47 70"><defs><style>.a{fill:#fff;}.b{fill:#231f20;}</style></defs><g transform="translate(-132.672 -952.742)"><path class="a" d="M179.672,952.742h-47v70h47v-70Z"/><path class="b" d="M178.99,953.493v68.5H133.355v-68.5H178.99"/><rect class="a" width="40.713" height="11.36" transform="translate(135.651 955.928)"/><rect class="a" width="40.736" height="41.757" transform="translate(135.633 969.763)"/><path class="a" d="M135.641,1019.525v-5.544h8.178v1.3h-4.893v.792h4.141v1.293h-4.141v.868h5.083v1.293Z"/><path class="a" d="M150.958,1015.595a.612.612,0,0,0-.474-.374,2.95,2.95,0,0,0-.849-.1c-.723,0-1.046.117-1.046.324,0,.82,5.767.3,5.767,2.322,0,1.284-1.939,1.911-4.694,1.911-2.646,0-4.371-.855-4.441-1.856h3.146a.8.8,0,0,0,.545.437,3.023,3.023,0,0,0,.935.14c.822,0,1.368-.145,1.368-.407,0-.841-5.772-.264-5.772-2.377,0-1.178,1.84-1.769,4.348-1.769,2.782,0,4.051.784,4.292,1.753Z"/><path class="a" d="M159.276,1016.385h1.292c1.016,0,1.562-.147,1.562-.528s-.556-.579-1.323-.579h-1.531Zm0,1.208v1.932H155.99v-5.545h4.736c3.338,0,4.44.508,4.44,1.585,0,.641-.513,1.174-1.683,1.36,1.057.211,1.7.342,1.7,1.46,0,.722-.042.972.347.972v.168H162.2a2.121,2.121,0,0,1-.165-.97c0-.728-.223-.962-1.754-.962Z"/><path class="a" d="M170.47,1015.278v.928h1.369c.655,0,1.13-.168,1.13-.485,0-.434-.648-.443-1.338-.443Zm0,1.931v1.022H171.9c.814,0,1.425-.094,1.425-.507,0-.485-.764-.515-1.814-.515Zm-3.284,2.316v-5.545h4.793c2.257,0,4.054.3,4.054,1.4,0,.572-.671.988-1.31,1.2,1.085.157,1.667.676,1.667,1.271,0,1.235-1.708,1.672-4.317,1.672Z"/><path class="b" d="M137.109,980.1l12.493-3.342,7.125,16.658.06-.021-2.15-17.977,12.492-3.338,7.794,29.089-7.613,2.026L161.736,982.4l-.06.023,2.361,21.644-8.24,2.207-8.784-19.931-.062.016,5.564,20.795-7.609,2.03Z"/><path class="b" d="M136.781,964.812v-6.433h1.839l.857,4.374h.015l.908-4.374h1.779v6.433h-1.112v-4.964h-.016L140,964.812h-1.09l-1-4.964H137.9v4.964Z"/><path class="b" d="M142.694,964.812l1.514-6.433h1.507l1.483,6.433h-1.2l-.3-1.427h-1.561l-.309,1.427Zm2.2-5.194h-.018l-.521,2.779h1.09Z"/><path class="b" d="M150.536,958.379v1.07h-1.272v5.363h-1.143v-5.363h-1.272v-1.07Z"/><path class="b" d="M154.761,958.379v4.561a2.778,2.778,0,0,1-.1.719,1.85,1.85,0,0,1-.31.631,1.608,1.608,0,0,1-.572.455,2.011,2.011,0,0,1-.879.172,1.746,1.746,0,0,1-1.4-.534,2.14,2.14,0,0,1-.458-1.443v-4.561h1.143v4.472a1.441,1.441,0,0,0,.193.851.616.616,0,0,0,.511.254.6.6,0,0,0,.552-.283,1.574,1.574,0,0,0,.176-.822v-4.472Z"/><path class="b" d="M156.811,964.812h-1.144v-6.433h2.112a1.142,1.142,0,0,1,.937.429,1.971,1.971,0,0,1,.345,1.254,2.167,2.167,0,0,1-.233,1.043,1.058,1.058,0,0,1-.782.535v.018l.258.053a.818.818,0,0,1,.329.161,1.033,1.033,0,0,1,.283.37,1.54,1.54,0,0,1,.122.68c0,.1,0,.244,0,.428s.008.375.019.571.023.376.041.542a1.618,1.618,0,0,0,.064.349h-1.12a1.733,1.733,0,0,1-.117-.616c0-.213-.005-.425-.005-.631,0-.191,0-.372,0-.544a1.307,1.307,0,0,0-.074-.451.635.635,0,0,0-.242-.307.9.9,0,0,0-.5-.117h-.3Zm0-3.653h.508a.439.439,0,0,0,.281-.089.662.662,0,0,0,.179-.227.976.976,0,0,0,.1-.308,2.144,2.144,0,0,0,.026-.321,1.058,1.058,0,0,0-.156-.655.526.526,0,0,0-.428-.191h-.508Z"/><path class="b" d="M159.9,964.812v-6.433h2.982v.989h-1.838v1.587h1.695v.988h-1.695v1.879h1.9v.99Z"/><path class="b" d="M165.261,959.346a5,5,0,0,0,.553-.437,2.679,2.679,0,0,0,.467-.565H167.3v6.468h-1.144v-4.976a3.752,3.752,0,0,1-.429.39c-.152.116-.305.228-.462.333Z"/><path class="b" d="M171.324,959.577l-1.288,5.235h-1.188l1.447-5.466h-1.811v-1h2.84Z"/><path class="b" d="M173.087,959.627h.842v1.756h1.278v.987h-1.278v1.755h-.842V962.37H171.8v-.987h1.287Z"/></g></svg>