<svg xmlns="http://www.w3.org/2000/svg" width="47" height="70" viewBox="0 0 47 70"><defs><style>.a{fill:#fff;}.b{fill:#231f20;}</style></defs><g transform="translate(63.636 -952.742)"><path class="a" d="M-16.636,952.742h-47v70h47v-70Z"/><path class="b" d="M-17.318,953.493v68.5H-62.953v-68.5h45.635"/><rect class="a" width="40.713" height="11.359" transform="translate(-60.657 955.928)"/><rect class="a" width="40.736" height="41.757" transform="translate(-60.675 969.763)"/><path class="a" d="M-60.667,1019.523v-5.544h8.178v1.3h-4.893v.792h4.141v1.293h-4.141v.868H-52.3v1.293Z"/><path class="a" d="M-45.35,1015.594a.617.617,0,0,0-.475-.375,2.982,2.982,0,0,0-.848-.1c-.723,0-1.046.117-1.046.324,0,.82,5.767.3,5.767,2.322,0,1.284-1.939,1.911-4.693,1.911-2.647,0-4.372-.855-4.442-1.856h3.146a.794.794,0,0,0,.545.436,2.985,2.985,0,0,0,.935.14c.821,0,1.367-.144,1.367-.406,0-.841-5.771-.264-5.771-2.377,0-1.178,1.84-1.769,4.348-1.769,2.782,0,4.052.783,4.291,1.753Z"/><path class="a" d="M-37.032,1016.384h1.292c1.016,0,1.562-.147,1.562-.528s-.556-.579-1.323-.579h-1.531Zm0,1.208v1.931h-3.286v-5.544h4.736c3.338,0,4.44.508,4.44,1.585,0,.641-.513,1.173-1.684,1.359,1.057.212,1.7.343,1.7,1.461,0,.721-.043.972.347.972v.167h-3.331a2.133,2.133,0,0,1-.164-.969c0-.728-.223-.962-1.755-.962Z"/><path class="a" d="M-25.839,1015.277v.928h1.37c.654,0,1.13-.168,1.13-.485,0-.434-.648-.443-1.339-.443Zm0,1.931v1.022h1.434c.814,0,1.425-.094,1.425-.507,0-.485-.763-.515-1.813-.515Zm-3.283,2.315v-5.544h4.792c2.258,0,4.054.3,4.054,1.4,0,.572-.671.987-1.309,1.2,1.085.156,1.667.676,1.667,1.27,0,1.236-1.709,1.672-4.318,1.672Z"/><path class="b" d="M-57.63,979.415l24.653-7.313,2.472,7.753-12.35,3.66,1.011,3.173,11.41-3.382,2.466,7.757-11.4,3.375,1.065,3.342L-25.552,994l2.473,7.75-25.054,7.431-9.5-29.762"/><path class="b" d="M-59.526,964.824v-6.433h3.5v.99h-2.156v1.585H-56.2v.99h-1.987v1.878h2.225v.99Z"/><path class="b" d="M-55.606,958.391h1.394l.991,4.678h.018l1.118-4.678h1.322l-1.695,6.433h-1.569Z"/><path class="b" d="M-50.159,964.824v-6.433h3.493v.99h-2.155v1.585h1.987v.99h-1.987v1.878H-46.6v.99Z"/><path class="b" d="M-44.414,964.824h-1.337v-6.433h2.473a1.441,1.441,0,0,1,1.1.427,1.77,1.77,0,0,1,.4,1.257,1.918,1.918,0,0,1-.269,1.042,1.267,1.267,0,0,1-.918.536v.017l.3.054a1.032,1.032,0,0,1,.386.16,1.069,1.069,0,0,1,.332.37,1.361,1.361,0,0,1,.143.681c0,.1,0,.244,0,.428s.009.373.021.57.03.377.05.543a1.352,1.352,0,0,0,.075.348h-1.312a1.5,1.5,0,0,1-.138-.615c0-.214,0-.425,0-.633,0-.189,0-.371,0-.543a1.149,1.149,0,0,0-.089-.45.657.657,0,0,0-.282-.307,1.185,1.185,0,0,0-.582-.116h-.347Zm0-3.654h.6a.576.576,0,0,0,.328-.088.652.652,0,0,0,.212-.228.955.955,0,0,0,.111-.306,1.855,1.855,0,0,0,.03-.322.939.939,0,0,0-.181-.654.658.658,0,0,0-.5-.191h-.6Z"/><path class="b" d="M-39.747,962.6l-1.677-4.206h1.464l.958,2.717,1.019-2.717h1.365l-1.789,4.206v2.227h-1.34Z"/><path class="b" d="M-33.849,964.93a2.434,2.434,0,0,1-1.278-.28,1.655,1.655,0,0,1-.658-.749,3.131,3.131,0,0,1-.238-1.064c-.023-.4-.037-.808-.037-1.229s.014-.841.037-1.239a3.085,3.085,0,0,1,.238-1.059,1.648,1.648,0,0,1,.658-.744,2.413,2.413,0,0,1,1.278-.282,2.412,2.412,0,0,1,1.277.282,1.638,1.638,0,0,1,.656.744,3.109,3.109,0,0,1,.239,1.059c.024.4.036.81.036,1.239s-.012.831-.036,1.229a3.155,3.155,0,0,1-.239,1.064,1.645,1.645,0,0,1-.656.749A2.432,2.432,0,0,1-33.849,964.93Zm0-.962a.693.693,0,0,0,.452-.138.891.891,0,0,0,.257-.423,3.185,3.185,0,0,0,.115-.735c.019-.3.028-.654.028-1.064s-.009-.765-.028-1.065a3.185,3.185,0,0,0-.115-.735.888.888,0,0,0-.257-.422.693.693,0,0,0-.452-.139.7.7,0,0,0-.454.139.835.835,0,0,0-.255.422,3.069,3.069,0,0,0-.117.735q-.027.45-.027,1.065c0,.41.009.763.027,1.064a3.068,3.068,0,0,0,.117.735.838.838,0,0,0,.255.423A.7.7,0,0,0-33.849,963.968Z"/><path class="b" d="M-30.569,964.824v-6.433h1.811l1.7,4.454h.019v-4.454h1.252v6.433h-1.766l-1.747-4.7h-.019v4.7Z"/><path class="b" d="M-24.664,964.824v-6.433h3.5v.99h-2.156v1.585h1.985v.99h-1.985v1.878H-21.1v.99Z"/></g></svg>