<svg xmlns="http://www.w3.org/2000/svg" width="24" height="24" viewBox="0 0 24 24"><defs><style>.a,.c,.f{fill:#0f0a28;}.b,.d{fill:#fff;}.c{stroke-miterlimit:10;}.d{stroke-linejoin:round;}.e,.f{stroke:none;}</style></defs><g transform="translate(-1884.51 -1459.026)"><circle class="a" cx="12" cy="12" r="12" transform="translate(1884.51 1459.026)"/><path class="b" d="M1896.511,1461.513a3.887,3.887,0,0,0-3.847,3.9v6.1l.962-.917.961.917.962-.917.962.917.961-.917.962.917.961-.917.962.917v-6.1A3.887,3.887,0,0,0,1896.511,1461.513Zm-1.539,5.025a.769.769,0,1,1,.769-.769A.769.769,0,0,1,1894.972,1466.538Zm3.077,0a.769.769,0,1,1,.769-.769A.769.769,0,0,1,1898.049,1466.538Z"/><g class="c"><path class="e" d="M 1906.010986328125 1476.193359375 L 1905.166015625 1475.387939453125 L 1904.548950195312 1474.7998046875 L 1903.932006835938 1475.387939453125 L 1903.5869140625 1475.716918945312 L 1903.241821289062 1475.3876953125 L 1902.625854492188 1474.799926757812 L 1902.008911132812 1475.387939453125 L 1901.663696289062 1475.716918945312 L 1901.318725585938 1475.3876953125 L 1900.702758789062 1474.799926757812 L 1900.0859375 1475.387939453125 L 1899.74072265625 1475.716918945312 L 1899.395751953125 1475.3876953125 L 1898.77978515625 1474.799926757812 L 1898.162963867188 1475.387939453125 L 1897.317993164062 1476.193359375 L 1897.317993164062 1475.026000976562 L 1897.317993164062 1468.930053710938 C 1897.317993164062 1466.501708984375 1899.267578125 1464.526000976562 1901.663940429688 1464.526000976562 C 1904.060913085938 1464.526000976562 1906.010986328125 1466.501708984375 1906.010986328125 1468.930053710938 L 1906.010986328125 1475.026000976562 L 1906.010986328125 1476.193359375 Z M 1903.203002929688 1469.012939453125 C 1903.0546875 1469.012939453125 1902.933959960938 1469.133666992188 1902.933959960938 1469.281982421875 C 1902.933959960938 1469.430297851562 1903.0546875 1469.551025390625 1903.203002929688 1469.551025390625 C 1903.351318359375 1469.551025390625 1903.472045898438 1469.430297851562 1903.472045898438 1469.281982421875 C 1903.472045898438 1469.133666992188 1903.351318359375 1469.012939453125 1903.203002929688 1469.012939453125 Z M 1900.1259765625 1469.012939453125 C 1899.977661132812 1469.012939453125 1899.857055664062 1469.133666992188 1899.857055664062 1469.281982421875 C 1899.857055664062 1469.430297851562 1899.977661132812 1469.551025390625 1900.1259765625 1469.551025390625 C 1900.274291992188 1469.551025390625 1900.39501953125 1469.430297851562 1900.39501953125 1469.281982421875 C 1900.39501953125 1469.133666992188 1900.274291992188 1469.012939453125 1900.1259765625 1469.012939453125 Z"/><path class="f" d="M 1901.663940429688 1465.026000976562 C 1899.548950195312 1465.026000976562 1897.817993164062 1466.782958984375 1897.817993164062 1468.930053710938 L 1897.817993164062 1475.026000976562 L 1898.780029296875 1474.109008789062 L 1899.740966796875 1475.026000976562 L 1900.703002929688 1474.109008789062 L 1901.663940429688 1475.026000976562 L 1902.6259765625 1474.109008789062 L 1903.587036132812 1475.026000976562 L 1904.548950195312 1474.109008789062 L 1905.510986328125 1475.026000976562 L 1905.510986328125 1468.930053710938 C 1905.510986328125 1466.782958984375 1903.780029296875 1465.026000976562 1901.663940429688 1465.026000976562 M 1900.1259765625 1470.051025390625 C 1899.701049804688 1470.051025390625 1899.357055664062 1469.70703125 1899.357055664062 1469.281982421875 C 1899.357055664062 1468.857055664062 1899.701049804688 1468.512939453125 1900.1259765625 1468.512939453125 C 1900.551025390625 1468.512939453125 1900.89501953125 1468.857055664062 1900.89501953125 1469.281982421875 C 1900.89501953125 1469.70703125 1900.551025390625 1470.051025390625 1900.1259765625 1470.051025390625 M 1903.203002929688 1470.051025390625 C 1902.777954101562 1470.051025390625 1902.433959960938 1469.70703125 1902.433959960938 1469.281982421875 C 1902.433959960938 1468.857055664062 1902.777954101562 1468.512939453125 1903.203002929688 1468.512939453125 C 1903.628051757812 1468.512939453125 1903.972045898438 1468.857055664062 1903.972045898438 1469.281982421875 C 1903.972045898438 1469.70703125 1903.628051757812 1470.051025390625 1903.203002929688 1470.051025390625 M 1901.663940429688 1464.026000976562 C 1904.336669921875 1464.026000976562 1906.510986328125 1466.225952148438 1906.510986328125 1468.930053710938 L 1906.510986328125 1475.026000976562 L 1906.510986328125 1477.360717773438 L 1904.821044921875 1475.749877929688 L 1904.548950195312 1475.490600585938 L 1904.277099609375 1475.749755859375 L 1903.586669921875 1476.407836914062 L 1902.896728515625 1475.74951171875 L 1902.625610351562 1475.490844726562 L 1902.353881835938 1475.749877929688 L 1901.66357421875 1476.407836914062 L 1900.973510742188 1475.74951171875 L 1900.70263671875 1475.490844726562 L 1900.430908203125 1475.749877929688 L 1899.740600585938 1476.407836914062 L 1899.050659179688 1475.74951171875 L 1898.779663085938 1475.490844726562 L 1898.507934570312 1475.749877929688 L 1896.817993164062 1477.360717773438 L 1896.817993164062 1475.026000976562 L 1896.817993164062 1468.930053710938 C 1896.817993164062 1466.225952148438 1898.991821289062 1464.026000976562 1901.663940429688 1464.026000976562 Z"/></g><g class="c"><path class="e" d="M 1887.010986328125 1476.194213867188 L 1887.010986328125 1475.026000976562 L 1887.010986328125 1468.930053710938 C 1887.010986328125 1466.501708984375 1888.960571289062 1464.526000976562 1891.357055664062 1464.526000976562 C 1893.75341796875 1464.526000976562 1895.703002929688 1466.501708984375 1895.703002929688 1468.930053710938 L 1895.703002929688 1475.026000976562 L 1895.703002929688 1476.193359375 L 1894.858032226562 1475.387939453125 L 1894.2412109375 1474.799926757812 L 1893.625244140625 1475.3876953125 L 1893.2802734375 1475.716918945312 L 1892.93505859375 1475.387939453125 L 1892.318237304688 1474.799926757812 L 1891.702270507812 1475.3876953125 L 1891.357299804688 1475.716918945312 L 1891.012084960938 1475.387939453125 L 1890.395141601562 1474.799926757812 L 1889.779174804688 1475.3876953125 L 1889.43408203125 1475.716918945312 L 1889.088989257812 1475.387939453125 L 1888.47216796875 1474.799926757812 L 1887.856201171875 1475.3876953125 L 1887.010986328125 1476.194213867188 Z M 1892.89501953125 1469.012939453125 C 1892.746704101562 1469.012939453125 1892.6259765625 1469.133666992188 1892.6259765625 1469.281982421875 C 1892.6259765625 1469.430297851562 1892.746704101562 1469.551025390625 1892.89501953125 1469.551025390625 C 1893.043334960938 1469.551025390625 1893.163940429688 1469.430297851562 1893.163940429688 1469.281982421875 C 1893.163940429688 1469.133666992188 1893.043334960938 1469.012939453125 1892.89501953125 1469.012939453125 Z M 1889.817993164062 1469.012939453125 C 1889.669677734375 1469.012939453125 1889.548950195312 1469.133666992188 1889.548950195312 1469.281982421875 C 1889.548950195312 1469.430297851562 1889.669677734375 1469.551025390625 1889.817993164062 1469.551025390625 C 1889.96630859375 1469.551025390625 1890.087036132812 1469.430297851562 1890.087036132812 1469.281982421875 C 1890.087036132812 1469.133666992188 1889.96630859375 1469.012939453125 1889.817993164062 1469.012939453125 Z"/><path class="f" d="M 1891.357055664062 1465.026000976562 C 1889.240966796875 1465.026000976562 1887.510986328125 1466.782958984375 1887.510986328125 1468.930053710938 L 1887.510986328125 1475.026000976562 L 1888.472045898438 1474.109008789062 L 1889.433959960938 1475.026000976562 L 1890.39501953125 1474.109008789062 L 1891.357055664062 1475.026000976562 L 1892.317993164062 1474.109008789062 L 1893.280029296875 1475.026000976562 L 1894.240966796875 1474.109008789062 L 1895.203002929688 1475.026000976562 L 1895.203002929688 1468.930053710938 C 1895.203002929688 1466.782958984375 1893.472045898438 1465.026000976562 1891.357055664062 1465.026000976562 M 1889.817993164062 1470.051025390625 C 1889.392944335938 1470.051025390625 1889.048950195312 1469.70703125 1889.048950195312 1469.281982421875 C 1889.048950195312 1468.857055664062 1889.392944335938 1468.512939453125 1889.817993164062 1468.512939453125 C 1890.243041992188 1468.512939453125 1890.587036132812 1468.857055664062 1890.587036132812 1469.281982421875 C 1890.587036132812 1469.70703125 1890.243041992188 1470.051025390625 1889.817993164062 1470.051025390625 M 1892.89501953125 1470.051025390625 C 1892.469970703125 1470.051025390625 1892.1259765625 1469.70703125 1892.1259765625 1469.281982421875 C 1892.1259765625 1468.857055664062 1892.469970703125 1468.512939453125 1892.89501953125 1468.512939453125 C 1893.319946289062 1468.512939453125 1893.663940429688 1468.857055664062 1893.663940429688 1469.281982421875 C 1893.663940429688 1469.70703125 1893.319946289062 1470.051025390625 1892.89501953125 1470.051025390625 M 1891.357055664062 1464.026000976562 C 1894.029174804688 1464.026000976562 1896.203002929688 1466.225952148438 1896.203002929688 1468.930053710938 L 1896.203002929688 1475.026000976562 L 1896.203002929688 1477.360717773438 L 1894.513061523438 1475.749877929688 L 1894.241333007812 1475.490844726562 L 1893.970458984375 1475.74951171875 L 1893.280395507812 1476.407836914062 L 1892.590087890625 1475.749877929688 L 1892.318359375 1475.490844726562 L 1892.04736328125 1475.74951171875 L 1891.357421875 1476.407836914062 L 1890.667114257812 1475.749877929688 L 1890.395385742188 1475.490844726562 L 1890.124267578125 1475.74951171875 L 1889.434326171875 1476.407836914062 L 1888.744018554688 1475.749755859375 L 1888.472290039062 1475.490844726562 L 1888.201293945312 1475.74951171875 L 1886.510986328125 1477.3623046875 L 1886.510986328125 1475.026000976562 L 1886.510986328125 1468.930053710938 C 1886.510986328125 1466.225952148438 1888.684936523438 1464.026000976562 1891.357055664062 1464.026000976562 Z"/></g><path class="b" d="M1901.664,1465.026a3.887,3.887,0,0,0-3.846,3.9v6.1l.962-.917.961.917.962-.917.961.917.962-.917.961.917.962-.917.962.917v-6.1A3.887,3.887,0,0,0,1901.664,1465.026Zm-1.538,5.025a.769.769,0,1,1,.769-.769A.769.769,0,0,1,1900.126,1470.051Zm3.077,0a.769.769,0,1,1,.769-.769A.769.769,0,0,1,1903.2,1470.051Z"/><path class="b" d="M1891.357,1465.026a3.886,3.886,0,0,0-3.846,3.9v6.1l.961-.917.962.917.961-.917.962.917.961-.917.962.917.961-.917.962.917v-6.1A3.887,3.887,0,0,0,1891.357,1465.026Zm-1.539,5.025a.769.769,0,1,1,.769-.769A.769.769,0,0,1,1889.818,1470.051Zm3.077,0a.769.769,0,1,1,.769-.769A.769.769,0,0,1,1892.9,1470.051Z"/><g class="d"><path class="e" d="M 1895.152709960938 1480.02001953125 L 1894.805053710938 1480.02001953125 L 1893.488037109375 1480.02001953125 L 1893.140258789062 1480.02001953125 L 1893.019287109375 1479.69384765625 L 1890.88427734375 1473.937866210938 L 1890.63427734375 1473.264038085938 L 1891.35302734375 1473.264038085938 L 1892.670043945312 1473.264038085938 L 1893.0263671875 1473.264038085938 L 1893.142578125 1473.600830078125 L 1894.147583007812 1476.509643554688 L 1895.155639648438 1473.600341796875 L 1895.272094726562 1473.264038085938 L 1895.628051757812 1473.264038085938 L 1896.943969726562 1473.264038085938 L 1897.663208007812 1473.264038085938 L 1897.41259765625 1473.938232421875 L 1895.273803710938 1479.694213867188 L 1895.152709960938 1480.02001953125 Z"/><path class="f" d="M 1891.35302734375 1473.764038085938 L 1893.488037109375 1479.52001953125 L 1894.805053710938 1479.52001953125 L 1896.943969726562 1473.764038085938 L 1895.628051757812 1473.764038085938 L 1894.14697265625 1478.038940429688 L 1892.670043945312 1473.764038085938 L 1891.35302734375 1473.764038085938 M 1891.35302734375 1472.764038085938 L 1892.670043945312 1472.764038085938 C 1893.096435546875 1472.764038085938 1893.475952148438 1473.034423828125 1893.615234375 1473.4375 L 1894.148315429688 1474.98046875 L 1894.68310546875 1473.436645507812 C 1894.822631835938 1473.034057617188 1895.201904296875 1472.764038085938 1895.628051757812 1472.764038085938 L 1896.943969726562 1472.764038085938 C 1897.271362304688 1472.764038085938 1897.578125 1472.92431640625 1897.765014648438 1473.193237304688 C 1897.951904296875 1473.462036132812 1897.995361328125 1473.805419921875 1897.88134765625 1474.112426757812 L 1895.742431640625 1479.868408203125 C 1895.596801757812 1480.260131835938 1895.223022460938 1480.52001953125 1894.805053710938 1480.52001953125 L 1893.488037109375 1480.52001953125 C 1893.06982421875 1480.52001953125 1892.695922851562 1480.259887695312 1892.550415039062 1479.867797851562 L 1890.415405273438 1474.11181640625 C 1890.301635742188 1473.804931640625 1890.34521484375 1473.461669921875 1890.532104492188 1473.192993164062 C 1890.719116210938 1472.924194335938 1891.025634765625 1472.764038085938 1891.35302734375 1472.764038085938 Z"/></g><g class="d"><path class="e" d="M 1899.488037109375 1480.14404296875 C 1899.18115234375 1480.14404296875 1898.877685546875 1480.105712890625 1898.586303710938 1480.029907226562 C 1898.289428710938 1479.951538085938 1898.048950195312 1479.859130859375 1897.849243164062 1479.7470703125 C 1897.661254882812 1479.641357421875 1897.502075195312 1479.5380859375 1897.3623046875 1479.431274414062 C 1897.21484375 1479.318481445312 1897.10498046875 1479.219360351562 1897.026733398438 1479.128662109375 L 1896.941162109375 1479.03564453125 L 1896.615234375 1478.681762695312 L 1896.956420898438 1478.342529296875 L 1897.699462890625 1477.603515625 L 1898.080444335938 1477.224487304688 L 1898.431030273438 1477.6318359375 C 1898.450561523438 1477.654663085938 1898.48876953125 1477.696533203125 1898.56005859375 1477.767944335938 C 1898.571166992188 1477.777099609375 1898.644897460938 1477.83349609375 1898.885009765625 1477.950561523438 C 1899.052368164062 1478.032348632812 1899.221801757812 1478.072021484375 1899.404052734375 1478.072021484375 C 1899.525024414062 1478.072021484375 1899.6884765625 1478.056030273438 1899.780029296875 1477.979736328125 C 1899.833984375 1477.93505859375 1899.850952148438 1477.89990234375 1899.850952148438 1477.833984375 C 1899.850952148438 1477.833984375 1899.850952148438 1477.833862304688 1899.850952148438 1477.833862304688 C 1899.84521484375 1477.827514648438 1899.830810546875 1477.813842773438 1899.80029296875 1477.795288085938 C 1899.644287109375 1477.701171875 1899.446533203125 1477.619750976562 1899.214233398438 1477.55419921875 C 1898.92626953125 1477.473999023438 1898.630004882812 1477.375366210938 1898.3349609375 1477.261474609375 C 1897.97314453125 1477.120361328125 1897.664184570312 1476.889770507812 1897.415161132812 1476.575561523438 C 1897.149291992188 1476.241943359375 1897.014038085938 1475.822509765625 1897.014038085938 1475.329956054688 C 1897.014038085938 1474.715942382812 1897.259521484375 1474.188598632812 1897.74365234375 1473.762573242188 C 1898.208984375 1473.352294921875 1898.809814453125 1473.14404296875 1899.529052734375 1473.14404296875 C 1899.804565429688 1473.14404296875 1900.074829101562 1473.176635742188 1900.332153320312 1473.240844726562 C 1900.594116210938 1473.306640625 1900.806762695312 1473.383544921875 1900.983276367188 1473.476196289062 C 1901.15283203125 1473.56591796875 1901.293212890625 1473.65185546875 1901.4140625 1473.739624023438 C 1901.548217773438 1473.835815429688 1901.651245117188 1473.926879882812 1901.726196289062 1474.015991210938 L 1901.792724609375 1474.090942382812 L 1902.097045898438 1474.433349609375 L 1901.782348632812 1474.766357421875 L 1901.04345703125 1475.54833984375 L 1900.743896484375 1475.865356445312 C 1900.7763671875 1475.877563476562 1900.808715820312 1475.889770507812 1900.841186523438 1475.902221679688 C 1901.202270507812 1476.040161132812 1901.513793945312 1476.270751953125 1901.76611328125 1476.587524414062 C 1902.032958984375 1476.92431640625 1902.16796875 1477.343383789062 1902.16796875 1477.833984375 C 1902.16796875 1478.51416015625 1901.915283203125 1479.07958984375 1901.416870117188 1479.5146484375 C 1900.937133789062 1479.932373046875 1900.288330078125 1480.14404296875 1899.488037109375 1480.14404296875 Z M 1899.329956054688 1475.328369140625 C 1899.3359375 1475.334716796875 1899.349853515625 1475.347290039062 1899.377563476562 1475.36376953125 C 1899.533569335938 1475.4580078125 1899.731201171875 1475.539672851562 1899.966674804688 1475.607666015625 C 1900.150512695312 1475.660888671875 1900.336059570312 1475.72021484375 1900.521606445312 1475.785034179688 L 1900.302490234375 1475.53271484375 C 1900.288452148438 1475.516479492188 1900.260131835938 1475.486206054688 1900.205200195312 1475.432983398438 C 1900.19384765625 1475.42431640625 1900.134643554688 1475.3818359375 1899.96142578125 1475.296264648438 C 1899.846557617188 1475.23974609375 1899.732421875 1475.212036132812 1899.613037109375 1475.212036132812 C 1899.499145507812 1475.212036132812 1899.416259765625 1475.233154296875 1899.366455078125 1475.27490234375 C 1899.331420898438 1475.304565429688 1899.329956054688 1475.316040039062 1899.329956054688 1475.328369140625 Z"/><path class="f" d="M 1899.488037109375 1479.64404296875 C 1900.16796875 1479.64404296875 1900.701049804688 1479.474975585938 1901.088012695312 1479.137939453125 C 1901.473999023438 1478.801025390625 1901.66796875 1478.365966796875 1901.66796875 1477.833984375 C 1901.66796875 1477.45703125 1901.569946289062 1477.14501953125 1901.375 1476.899047851562 C 1901.178955078125 1476.652954101562 1900.942016601562 1476.475952148438 1900.661987304688 1476.369018554688 C 1900.383056640625 1476.261962890625 1900.10400390625 1476.16796875 1899.828002929688 1476.088012695312 C 1899.551025390625 1476.008056640625 1899.31494140625 1475.910034179688 1899.120971679688 1475.79296875 C 1898.927001953125 1475.677001953125 1898.829956054688 1475.52197265625 1898.829956054688 1475.329956054688 C 1898.829956054688 1475.157958984375 1898.901977539062 1475.012939453125 1899.045043945312 1474.891967773438 C 1899.18798828125 1474.77197265625 1899.376953125 1474.712036132812 1899.613037109375 1474.712036132812 C 1899.807983398438 1474.712036132812 1899.998046875 1474.756958007812 1900.182983398438 1474.848022460938 C 1900.366943359375 1474.93896484375 1900.488037109375 1475.011962890625 1900.546020507812 1475.067016601562 C 1900.60302734375 1475.121948242188 1900.64794921875 1475.16796875 1900.680053710938 1475.204956054688 L 1901.4189453125 1474.422973632812 L 1901.347045898438 1474.342041015625 C 1901.301025390625 1474.286010742188 1901.225952148438 1474.219970703125 1901.119995117188 1474.14404296875 C 1901.014038085938 1474.067016601562 1900.890991210938 1473.993041992188 1900.7509765625 1473.9189453125 C 1900.609985351562 1473.844970703125 1900.430053710938 1473.781005859375 1900.211059570312 1473.725952148438 C 1899.990966796875 1473.671020507812 1899.764038085938 1473.64404296875 1899.529052734375 1473.64404296875 C 1898.932006835938 1473.64404296875 1898.447021484375 1473.808959960938 1898.073974609375 1474.137939453125 C 1897.699951171875 1474.467041015625 1897.514038085938 1474.864013671875 1897.514038085938 1475.329956054688 C 1897.514038085938 1475.70703125 1897.610961914062 1476.01904296875 1897.807006835938 1476.265014648438 C 1898.001953125 1476.510986328125 1898.238037109375 1476.68701171875 1898.515014648438 1476.795043945312 C 1898.7919921875 1476.901977539062 1899.069946289062 1476.994995117188 1899.349975585938 1477.072998046875 C 1899.630004882812 1477.151977539062 1899.865966796875 1477.2509765625 1900.06005859375 1477.368041992188 C 1900.254028320312 1477.485961914062 1900.350952148438 1477.640991210938 1900.350952148438 1477.833984375 C 1900.350952148438 1478.047973632812 1900.267944335938 1478.224975585938 1900.099975585938 1478.364013671875 C 1899.932983398438 1478.503051757812 1899.701049804688 1478.572021484375 1899.404052734375 1478.572021484375 C 1899.14697265625 1478.572021484375 1898.901000976562 1478.515014648438 1898.666015625 1478.400024414062 C 1898.430053710938 1478.285034179688 1898.277954101562 1478.192993164062 1898.2099609375 1478.125 C 1898.141967773438 1478.057006835938 1898.088989257812 1478.0009765625 1898.052001953125 1477.9580078125 L 1897.308959960938 1478.697021484375 L 1897.401000976562 1478.796997070312 C 1897.454956054688 1478.860961914062 1897.54296875 1478.93994140625 1897.666015625 1479.034057617188 C 1897.788940429688 1479.128051757812 1897.932006835938 1479.219970703125 1898.093994140625 1479.31103515625 C 1898.255981445312 1479.401977539062 1898.462036132812 1479.47998046875 1898.712036132812 1479.546020507812 C 1898.962036132812 1479.610961914062 1899.220947265625 1479.64404296875 1899.488037109375 1479.64404296875 M 1899.488037109375 1480.64404296875 C 1899.138793945312 1480.64404296875 1898.793090820312 1480.600219726562 1898.460571289062 1480.513916015625 C 1898.120361328125 1480.424072265625 1897.841552734375 1480.316162109375 1897.6044921875 1480.182983398438 C 1897.395629882812 1480.065551757812 1897.217163085938 1479.94970703125 1897.05859375 1479.828369140625 C 1896.884521484375 1479.6953125 1896.755126953125 1479.578247070312 1896.653930664062 1479.4619140625 L 1896.573364257812 1479.374389648438 C 1896.209350585938 1478.979125976562 1896.222778320312 1478.366943359375 1896.603759765625 1477.988037109375 L 1897.346801757812 1477.2490234375 C 1897.349975585938 1477.245849609375 1897.353149414062 1477.242797851562 1897.356323242188 1477.23974609375 C 1897.237060546875 1477.133544921875 1897.1259765625 1477.015625 1897.023315429688 1476.886108398438 C 1896.685913085938 1476.462890625 1896.514038085938 1475.938598632812 1896.514038085938 1475.329956054688 C 1896.514038085938 1474.57666015625 1896.825073242188 1473.904907226562 1897.413330078125 1473.38720703125 C 1897.972290039062 1472.894287109375 1898.684326171875 1472.64404296875 1899.529052734375 1472.64404296875 C 1899.845336914062 1472.64404296875 1900.15625 1472.681640625 1900.453247070312 1472.755737304688 C 1900.754760742188 1472.83154296875 1901.003662109375 1472.922241210938 1901.215576171875 1473.033447265625 C 1901.406005859375 1473.134155273438 1901.564819335938 1473.2314453125 1901.703979492188 1473.332275390625 C 1901.871704101562 1473.452514648438 1902.002807617188 1473.569213867188 1902.10400390625 1473.688354492188 L 1902.16650390625 1473.7587890625 C 1902.510864257812 1474.146362304688 1902.501831054688 1474.73291015625 1902.145751953125 1475.109741210938 L 1901.567138671875 1475.72216796875 C 1901.785888671875 1475.872680664062 1901.983276367188 1476.057739257812 1902.157104492188 1476.276000976562 C 1902.49658203125 1476.704345703125 1902.66796875 1477.227783203125 1902.66796875 1477.833984375 C 1902.66796875 1478.653198242188 1902.348999023438 1479.364624023438 1901.74560546875 1479.891357421875 C 1901.171875 1480.390991210938 1900.41259765625 1480.64404296875 1899.488037109375 1480.64404296875 Z"/></g></g></svg>