<svg xmlns="http://www.w3.org/2000/svg" xmlns:xlink="http://www.w3.org/1999/xlink" width="50" height="30" viewBox="0 0 50 30"><defs><path id="lk0wa" d="M877 574c0-1.5 1.5-3 3-3h44c1.5 0 3 1.5 3 3v24c0 1.5-1.5 3-3 3h-44c-1.5 0-3-1.5-3-3z"/><path id="lk0wb" d="M908.46 581.327c.23-1.478-.002-2.483-.801-3.394-.88-1.003-2.471-1.433-4.505-1.433h-5.905a.846.846 0 0 0-.835.713l-2.46 15.593a.508.508 0 0 0 .502.586h3.646l-.252 1.596a.444.444 0 0 0 .438.512h3.073a.74.74 0 0 0 .73-.624l.03-.156.579-3.671.037-.203a.74.74 0 0 1 .73-.624h.46c2.977 0 5.308-1.209 5.989-4.707.285-1.461.137-2.681-.615-3.539a2.943 2.943 0 0 0-.841-.65"/><path id="lk0wc" d="M908.46 581.327c.23-1.478-.002-2.483-.801-3.394-.88-1.003-2.471-1.433-4.505-1.433h-5.905a.846.846 0 0 0-.835.713l-2.46 15.593a.508.508 0 0 0 .502.586h3.646l.915-5.807-.028.182a.842.842 0 0 1 .832-.713h1.732c3.403 0 6.068-1.383 6.846-5.381.023-.118.043-.233.061-.346"/><path id="lk0wd" d="M900.001 581.347a.743.743 0 0 1 .73-.624h4.629c.549 0 1.06.036 1.527.111a6.331 6.331 0 0 1 .933.223c.23.076.443.166.64.27.23-1.478-.002-2.483-.801-3.394-.88-1.003-2.471-1.433-4.505-1.433h-5.905a.846.846 0 0 0-.835.713l-2.46 15.593a.508.508 0 0 0 .502.586h3.646l.915-5.807z"/></defs><g><g transform="translate(-877 -571)"><g><use fill="#fff" xlink:href="#lk0wa"/></g><g><g><use fill="#009ade" xlink:href="#lk0wb"/></g><g><use fill="#002169" xlink:href="#lk0wc"/></g><g><use fill="#002f87" xlink:href="#lk0wd"/></g></g></g></g></svg>