<svg xmlns="http://www.w3.org/2000/svg" width="44" height="44" viewBox="0 0 44 44"><defs><style>.a{fill:#b7b5be;}.b{fill:none;}.c{fill:#fff;}</style></defs><g transform="translate(-1529.872 -1237.275)"><rect class="a" width="44" height="44" rx="2.43" transform="translate(1529.872 1237.275)"/><rect class="b" width="44" height="44" transform="translate(1529.872 1237.275)"/><path class="c" d="M1554.942,1245.775a.431.431,0,0,1,.43.43v19.14a.431.431,0,0,1-.43.43H1541.8a.431.431,0,0,1-.43-.43V1246.2a.431.431,0,0,1,.43-.43h13.14m0-2H1541.8a2.43,2.43,0,0,0-2.43,2.43v19.14a2.43,2.43,0,0,0,2.43,2.43h13.14a2.43,2.43,0,0,0,2.43-2.43V1246.2a2.43,2.43,0,0,0-2.43-2.43Z"/><path class="c" d="M1561.942,1250.775h-2.57v2h2.57a.431.431,0,0,1,.43.43v19.14a.431.431,0,0,1-.43.43H1548.8a.431.431,0,0,1-.43-.43v-2.57h-2v2.57a2.43,2.43,0,0,0,2.43,2.43h13.14a2.43,2.43,0,0,0,2.43-2.43V1253.2A2.43,2.43,0,0,0,1561.942,1250.775Z"/><path class="c" d="M1542.872,1254.382a.919.919,0,0,1,.254-.7,1.048,1.048,0,0,1,.742-.238,1.015,1.015,0,0,1,.727.244.916.916,0,0,1,.257.7.9.9,0,0,1-.264.694,1,1,0,0,1-.72.248,1.033,1.033,0,0,1-.736-.244A.914.914,0,0,1,1542.872,1254.382Zm0,4.576a.918.918,0,0,1,.254-.7,1.047,1.047,0,0,1,.742-.239,1.015,1.015,0,0,1,.727.244,1.062,1.062,0,0,1,0,1.389,1,1,0,0,1-.724.251,1.025,1.025,0,0,1-.736-.247A.912.912,0,0,1,1542.872,1258.958Z"/><path class="c" d="M1550.244,1251.65l-3.084,8.1h-1.567l3.084-8.1Z"/><path class="c" d="M1553.872,1251.65l-3.084,8.1h-1.567l3.084-8.1Z"/></g></svg>