<svg xmlns="http://www.w3.org/2000/svg" xmlns:xlink="http://www.w3.org/1999/xlink" width="50" height="44" viewBox="0 0 50 44"><defs><path id="ydqua" d="M526.106 432.86v-10.714h3.571v10.715z"/><path id="ydqub" d="M522.534 425.718h10.715v3.571h-10.715z"/><path id="ydquc" d="M541.99 432.56a2.679 2.679 0 1 1 5.356 0 2.679 2.679 0 0 1-5.357 0z"/><path id="ydqud" d="M548.303 426.247a2.679 2.679 0 1 1 5.357 0 2.679 2.679 0 0 1-5.357 0z"/><path id="ydque" d="M550.036 414c-3.495 0-6.99 1.333-9.657 4a13.602 13.602 0 0 0-1.379 1.638 13.7 13.7 0 0 0-1.38-1.638 13.612 13.612 0 0 0-9.657-4 13.613 13.613 0 0 0-9.656 4c-.094.093-.173.196-.263.291-.095.089-.196.168-.289.26-5.007 5.008-5.007 13.202 0 18.21l12.14 12.139 9.105 9.105 9.104-9.105h.001l11.587-11.587.552-.552c5.007-5.008 5.007-13.202 0-18.21-.093-.092-.194-.171-.289-.26-.09-.095-.169-.198-.263-.291a13.61 13.61 0 0 0-9.656-4zm0 3.571a9.993 9.993 0 0 1 7.11 2.936c.07.08.14.159.214.237l.072.077.077.072c.075.071.152.138.21.184 3.627 3.628 3.627 9.531 0 13.158l-.552.552-11.588 11.588-6.579 6.579-6.58-6.579-12.139-12.139a9.235 9.235 0 0 1-2.71-6.58c0-2.495.962-4.832 2.691-6.558.077-.067.153-.134.228-.205l.077-.072.072-.077c.074-.078.144-.157.193-.219a10.02 10.02 0 0 1 7.131-2.954 10.02 10.02 0 0 1 7.132 2.954c.333.333.656.72 1.018 1.216l2.887 3.965 2.887-3.966c.361-.495.684-.881 1.017-1.215a10.02 10.02 0 0 1 7.132-2.954"/><path id="ydquf" d="M560.244 418.552c-.092-.092-.193-.171-.288-.26-.09-.096-.17-.198-.264-.292-5.333-5.333-13.979-5.333-19.313 0a13.775 13.775 0 0 0-1.379 1.639 13.697 13.697 0 0 0-1.38-1.64c-5.333-5.332-13.979-5.332-19.313 0-.093.095-.173.197-.263.293-.095.089-.196.168-.288.26-5.008 5.008-5.008 13.202 0 18.21l12.14 12.139 9.104 9.105 9.105-9.105 11.587-11.588.552-.551c5.008-5.008 5.008-13.202 0-18.21z"/><path id="ydqug" d="M526.106 432.861v-10.714h3.571v10.714z"/><path id="ydquh" d="M522.534 425.718h10.715v3.572h-10.715z"/><path id="ydqui" d="M541.99 432.561a2.679 2.679 0 1 1 5.356 0 2.679 2.679 0 0 1-5.357 0z"/><path id="ydquj" d="M548.303 426.248a2.679 2.679 0 1 1 5.357 0 2.679 2.679 0 0 1-5.357 0z"/></defs><g><g transform="translate(-514 -414)"><g><g><use fill="#868493" xlink:href="#ydqua"/></g><g><use fill="#868493" xlink:href="#ydqub"/></g></g><g><g><use fill="#868493" xlink:href="#ydquc"/></g><g><use fill="#868493" xlink:href="#ydqud"/></g></g><g><use fill="#868493" xlink:href="#ydque"/></g></g><g transform="translate(-514 -414)"><g><use fill="#fa5050" xlink:href="#ydquf"/></g><g><g><use fill="#fff" xlink:href="#ydqug"/></g><g><use fill="#fff" xlink:href="#ydquh"/></g></g><g><g><use fill="#fff" xlink:href="#ydqui"/></g><g><use fill="#fff" xlink:href="#ydquj"/></g></g></g></g></svg>